<svg width="349" height="352" viewBox="0 0 349 352" fill="none" xmlns="http://www.w3.org/2000/svg">
<rect x="2.5" y="2.5" width="344" height="347" rx="17.5" stroke="#383838" stroke-width="5"/>
<rect x="30.5" y="25.5" width="269" height="270" rx="17.5" stroke="#383838" stroke-width="5"/>
<path fill-rule="evenodd" clip-rule="evenodd" d="M72.3374 229.209C84.8446 232.095 96.8708 233.538 108.416 233.538C127.267 233.538 142.803 229.395 155.026 221.11C151.676 212.169 150.001 201.832 150.001 190.099C150.001 178.554 151.733 168.452 155.196 159.793C156.437 156.622 157.839 153.647 159.402 150.871C152.042 144.499 141.782 138.742 128.62 133.6C122.126 131.195 118.398 129.872 117.436 129.632C107.093 126.024 99.6368 122.777 95.0669 119.89C90.4969 116.764 88.2119 112.314 88.2119 106.541C88.2119 96.1988 96.7505 91.0276 113.828 91.0276C122.246 91.0276 129.823 92.2302 136.557 94.6354C143.532 96.8002 148.583 99.4459 151.71 102.573L165.781 71.5451C160.73 68.1778 153.394 65.4118 143.773 63.2471C134.393 61.0824 124.772 60 114.91 60C94.9466 60 78.9518 64.3294 66.9256 72.9883C55.1399 81.4066 49.2471 93.1923 49.2471 108.345C49.2471 121.574 53.4562 132.277 61.8746 140.455C70.2929 148.393 81.7178 155.247 96.1492 161.02L109.859 166.071C119.721 169.679 126.576 172.806 130.424 175.451C134.272 178.097 136.196 181.825 136.196 186.636C136.196 197.459 126.936 202.871 108.416 202.871C89.8956 202.871 73.4197 197.82 58.9883 187.718L46 218.385C51.2915 222.474 60.0706 226.082 72.3374 229.209Z" fill="#4C9FEB"/>
<path d="M185.673 206.551C188.367 217.519 193.563 225.697 201.259 231.085C209.149 236.28 219.154 238.878 231.277 238.878C239.358 238.878 246.767 237.627 253.501 235.125C260.236 232.624 265.624 229.93 269.664 227.044C275.052 230.123 277.746 234.452 277.746 240.032C277.746 243.303 276.495 246.382 273.994 249.268C271.492 251.962 268.029 254.367 263.603 256.484C259.37 258.408 254.271 259.947 248.306 261.102C242.533 262.257 236.28 262.834 229.545 262.834C218.385 262.834 208.187 261.294 198.95 258.216C189.907 255.137 182.114 250.519 175.571 244.362C169.029 238.204 163.93 230.604 160.274 221.56C156.811 212.516 155.079 202.029 155.079 190.099C155.079 178.554 156.811 168.452 160.274 159.793C163.738 150.942 168.452 143.63 174.417 137.858C180.382 131.893 187.405 127.371 195.487 124.292C203.568 121.213 212.227 119.674 221.463 119.674C230.7 119.674 239.07 121.213 246.574 124.292C254.271 127.178 260.813 131.315 266.201 136.703C271.781 141.898 276.014 148.152 278.901 155.464C281.979 162.776 283.519 170.761 283.519 179.42C283.519 184.231 282.364 187.79 280.055 190.099C277.746 192.216 274.379 193.659 269.953 194.429L185.673 206.551ZM221.463 143.053C210.88 143.053 202.029 146.613 194.91 153.732C187.983 160.852 184.327 171.05 183.942 184.327L254.944 174.225C254.175 165.566 251 158.254 245.42 152.289C239.839 146.132 231.854 143.053 221.463 143.053Z" fill="#173C73"/>
</svg>
