<svg id="Capa_1" enable-background="new 0 0 510 510" height="512" viewBox="0 0 510 510" width="512" xmlns="http://www.w3.org/2000/svg" xmlns:xlink="http://www.w3.org/1999/xlink"><linearGradient id="lg1"><stop offset="0" stop-color="#537983"/><stop offset="1" stop-color="#3e5959"/></linearGradient><linearGradient id="SVGID_1_" gradientUnits="userSpaceOnUse" x1="191.999" x2="308.708" xlink:href="#lg1" y1="99.004" y2="99.004"/><linearGradient id="SVGID_2_" gradientUnits="userSpaceOnUse" x1="255" x2="255" xlink:href="#lg1" y1="150.7" y2="165.958"/><linearGradient id="SVGID_3_" gradientUnits="userSpaceOnUse" x1="117.631" x2="381.841" xlink:href="#lg1" y1="163.828" y2="428.039"/><linearGradient id="SVGID_4_" gradientUnits="userSpaceOnUse" x1="255" x2="255" xlink:href="#lg1" y1="438.295" y2="154.329"/><linearGradient id="lg2"><stop offset="0" stop-color="#3e5959" stop-opacity="0"/><stop offset="1" stop-color="#384949"/></linearGradient><linearGradient id="SVGID_5_" gradientUnits="userSpaceOnUse" x1="255" x2="255" xlink:href="#lg2" y1="396.131" y2="433.898"/><linearGradient id="SVGID_6_" gradientUnits="userSpaceOnUse" x1="255" x2="255" xlink:href="#lg1" y1="364.555" y2="396.93"/><linearGradient id="SVGID_7_" gradientUnits="userSpaceOnUse" x1="49.227" x2="67.227" xlink:href="#lg1" y1="213.611" y2="237.611"/><linearGradient id="SVGID_8_" gradientUnits="userSpaceOnUse" x1="105.893" x2="123.893" xlink:href="#lg1" y1="213.611" y2="237.611"/><linearGradient id="SVGID_9_" gradientUnits="userSpaceOnUse" x1="162.56" x2="180.56" xlink:href="#lg1" y1="213.611" y2="237.611"/><linearGradient id="SVGID_10_" gradientUnits="userSpaceOnUse" x1="219.227" x2="237.227" xlink:href="#lg1" y1="213.611" y2="237.611"/><linearGradient id="SVGID_11_" gradientUnits="userSpaceOnUse" x1="275.893" x2="293.893" xlink:href="#lg1" y1="213.611" y2="237.611"/><linearGradient id="SVGID_12_" gradientUnits="userSpaceOnUse" x1="332.56" x2="350.56" xlink:href="#lg1" y1="213.611" y2="237.611"/><linearGradient id="SVGID_13_" gradientUnits="userSpaceOnUse" x1="389.227" x2="407.227" xlink:href="#lg1" y1="213.611" y2="237.611"/><linearGradient id="SVGID_14_" gradientUnits="userSpaceOnUse" x1="445.893" x2="463.893" xlink:href="#lg1" y1="213.611" y2="237.611"/><linearGradient id="SVGID_15_" gradientUnits="userSpaceOnUse" x1="49.227" x2="67.227" xlink:href="#lg1" y1="266.278" y2="290.278"/><linearGradient id="SVGID_16_" gradientUnits="userSpaceOnUse" x1="105.893" x2="123.893" xlink:href="#lg1" y1="266.278" y2="290.278"/><linearGradient id="SVGID_17_" gradientUnits="userSpaceOnUse" x1="162.56" x2="180.56" xlink:href="#lg1" y1="266.278" y2="290.278"/><linearGradient id="SVGID_18_" gradientUnits="userSpaceOnUse" x1="219.227" x2="237.227" xlink:href="#lg1" y1="266.278" y2="290.278"/><linearGradient id="SVGID_19_" gradientUnits="userSpaceOnUse" x1="275.893" x2="293.893" xlink:href="#lg1" y1="266.278" y2="290.278"/><linearGradient id="SVGID_20_" gradientUnits="userSpaceOnUse" x1="332.56" x2="350.56" xlink:href="#lg1" y1="266.278" y2="290.278"/><linearGradient id="SVGID_21_" gradientUnits="userSpaceOnUse" x1="389.227" x2="407.227" xlink:href="#lg1" y1="266.278" y2="290.278"/><linearGradient id="SVGID_22_" gradientUnits="userSpaceOnUse" x1="445.893" x2="463.893" xlink:href="#lg1" y1="266.278" y2="290.278"/><linearGradient id="SVGID_23_" gradientUnits="userSpaceOnUse" x1="49.227" x2="67.227" xlink:href="#lg1" y1="318.944" y2="342.944"/><linearGradient id="SVGID_24_" gradientUnits="userSpaceOnUse" x1="105.893" x2="123.893" xlink:href="#lg1" y1="318.944" y2="342.944"/><linearGradient id="SVGID_25_" gradientUnits="userSpaceOnUse" x1="162.56" x2="180.56" xlink:href="#lg1" y1="318.944" y2="342.944"/><linearGradient id="SVGID_26_" gradientUnits="userSpaceOnUse" x1="219.227" x2="237.227" xlink:href="#lg1" y1="318.944" y2="342.944"/><linearGradient id="SVGID_27_" gradientUnits="userSpaceOnUse" x1="275.893" x2="293.893" xlink:href="#lg1" y1="318.944" y2="342.944"/><linearGradient id="SVGID_28_" gradientUnits="userSpaceOnUse" x1="332.56" x2="350.56" xlink:href="#lg1" y1="318.944" y2="342.944"/><linearGradient id="SVGID_29_" gradientUnits="userSpaceOnUse" x1="389.227" x2="407.227" xlink:href="#lg1" y1="318.944" y2="342.944"/><linearGradient id="SVGID_30_" gradientUnits="userSpaceOnUse" x1="445.893" x2="463.893" xlink:href="#lg1" y1="318.944" y2="342.944"/><linearGradient id="SVGID_31_" gradientUnits="userSpaceOnUse" x1="49.227" x2="67.227" xlink:href="#lg1" y1="371.611" y2="395.611"/><linearGradient id="SVGID_32_" gradientUnits="userSpaceOnUse" x1="105.893" x2="123.893" xlink:href="#lg1" y1="371.611" y2="395.611"/><linearGradient id="SVGID_33_" gradientUnits="userSpaceOnUse" x1="389.227" x2="407.227" xlink:href="#lg1" y1="371.611" y2="395.611"/><linearGradient id="SVGID_34_" gradientUnits="userSpaceOnUse" x1="445.893" x2="463.893" xlink:href="#lg1" y1="371.611" y2="395.611"/><linearGradient id="SVGID_35_" gradientUnits="userSpaceOnUse" x1="105.009" x2="57.313" xlink:href="#lg2" y1="236.324" y2="188.628"/><linearGradient id="SVGID_36_" gradientUnits="userSpaceOnUse" x1="146.713" x2="92" xlink:href="#lg2" y1="248.16" y2="226.042"/><linearGradient id="SVGID_37_" gradientUnits="userSpaceOnUse" x1="281.013" x2="181.45" xlink:href="#lg2" y1="263.653" y2="164.09"/><linearGradient id="SVGID_38_" gradientUnits="userSpaceOnUse" x1="360.014" x2="315.672" xlink:href="#lg2" y1="229.319" y2="184.977"/><linearGradient id="SVGID_39_" gradientUnits="userSpaceOnUse" x1="446.233" x2="378.566" xlink:href="#lg2" y1="219.933" y2="179.266"/><linearGradient id="SVGID_40_" gradientUnits="userSpaceOnUse" x1="504.852" x2="467.307" xlink:href="#lg2" y1="225.482" y2="187.937"/><linearGradient id="SVGID_41_" gradientUnits="userSpaceOnUse" x1="316.938" x2="190.438" xlink:href="#lg2" y1="382.188" y2="345.188"/><linearGradient id="SVGID_42_" gradientUnits="userSpaceOnUse" x1="451.996" x2="334.989" xlink:href="#lg2" y1="378.841" y2="344.618"/><linearGradient id="SVGID_43_" gradientUnits="userSpaceOnUse" x1="525.667" x2="485" xlink:href="#lg2" y1="366.478" y2="366.478"/><linearGradient id="lg3"><stop offset="0" stop-color="#ffdcbd"/><stop offset="1" stop-color="#ffa9b1"/></linearGradient><linearGradient id="SVGID_44_" gradientUnits="userSpaceOnUse" x1="289.539" x2="361.543" xlink:href="#lg3" y1="350.594" y2="424.865"/><linearGradient id="SVGID_45_" gradientUnits="userSpaceOnUse" x1="301.226" x2="439.776" xlink:href="#lg3" y1="296.729" y2="435.28"/><linearGradient id="lg4"><stop offset="0" stop-color="#ffa9b1" stop-opacity="0"/><stop offset="1" stop-color="#f89580"/></linearGradient><linearGradient id="SVGID_46_" gradientTransform="matrix(-1 0 0 1 767.835 0)" gradientUnits="userSpaceOnUse" x1="378.712" x2="367.645" xlink:href="#lg4" y1="306.286" y2="381.1"/><linearGradient id="SVGID_47_" gradientTransform="matrix(-1 0 0 1 767.835 0)" gradientUnits="userSpaceOnUse" x1="376.016" x2="376.016" xlink:href="#lg4" y1="472.984" y2="497.363"/><linearGradient id="SVGID_48_" gradientUnits="userSpaceOnUse" x1="188.611" x2="212.682" xlink:href="#lg3" y1="361.8" y2="385.871"/><linearGradient id="SVGID_49_" gradientUnits="userSpaceOnUse" x1="23.64" x2="194.86" xlink:href="#lg3" y1="303.205" y2="423.967"/><linearGradient id="SVGID_50_" gradientUnits="userSpaceOnUse" x1="120.876" x2="109.809" xlink:href="#lg4" y1="306.286" y2="381.1"/><linearGradient id="SVGID_51_" gradientUnits="userSpaceOnUse" x1="118.18" x2="118.18" xlink:href="#lg4" y1="472.984" y2="497.363"/><linearGradient id="lg5"><stop offset="0" stop-color="#ffe177"/><stop offset="1" stop-color="#fe9738"/></linearGradient><linearGradient id="SVGID_52_" gradientTransform="matrix(0 1 1 0 -1141.121 167.689)" gradientUnits="userSpaceOnUse" x1="-77.516" x2="30.649" xlink:href="#lg5" y1="1504.98" y2="1545.542"/><linearGradient id="SVGID_53_" gradientTransform="matrix(0 1 1 0 -1141.121 167.689)" gradientUnits="userSpaceOnUse" x1="-48.501" x2="59.664" xlink:href="#lg5" y1="1427.608" y2="1468.17"/><linearGradient id="SVGID_54_" gradientTransform="matrix(0 1 1 0 -1141.121 167.689)" gradientUnits="userSpaceOnUse" x1="-98.728" x2="9.437" xlink:href="#lg5" y1="1561.547" y2="1602.109"/><linearGradient id="SVGID_55_" gradientTransform="matrix(0 1 1 0 -1141.121 167.689)" gradientUnits="userSpaceOnUse" x1="-77.516" x2="30.649" xlink:href="#lg5" y1="1242.98" y2="1283.542"/><linearGradient id="SVGID_56_" gradientTransform="matrix(0 1 1 0 -1141.121 167.689)" gradientUnits="userSpaceOnUse" x1="-48.501" x2="59.664" xlink:href="#lg5" y1="1165.608" y2="1206.17"/><linearGradient id="SVGID_57_" gradientTransform="matrix(0 1 1 0 -1141.121 167.689)" gradientUnits="userSpaceOnUse" x1="-98.728" x2="9.437" xlink:href="#lg5" y1="1299.547" y2="1340.109"/><g><path d="m256.143 193.308c-9.665 0-17.5-7.835-17.5-17.5v-63.659c0-14.888 5.797-28.884 16.325-39.411 8.083-8.083 8.084-21.238 0-29.322l-8.842-8.842c-6.834-6.834-6.834-17.915 0-24.749s17.915-6.834 24.749 0l8.842 8.842c21.73 21.73 21.73 57.089 0 78.82-3.917 3.917-6.073 9.123-6.073 14.662v63.659c-.001 9.665-7.836 17.5-17.501 17.5z" fill="url(#SVGID_1_)"/><path d="m294 174.45h-78v-10.5c0-8.008 6.492-14.5 14.5-14.5h49c8.008 0 14.5 6.492 14.5 14.5z" fill="url(#SVGID_2_)"/><g><g><g><path d="m491.254 436.425h-472.508c-10.353 0-18.746-8.393-18.746-18.746v-232.962c0-10.353 8.393-18.746 18.746-18.746h472.508c10.353 0 18.746 8.393 18.746 18.746v232.962c0 10.353-8.393 18.746-18.746 18.746z" fill="url(#SVGID_3_)"/><path d="m39.523 187.807h430.953c9.04 0 16.368 7.328 16.368 16.368v194.045c0 9.04-7.328 16.368-16.368 16.368h-430.953c-9.04 0-16.368-7.328-16.368-16.368v-194.045c0-9.04 7.328-16.368 16.368-16.368z" fill="url(#SVGID_4_)"/><path d="m0 330.3v87.379c0 10.353 8.393 18.746 18.746 18.746h472.508c10.353 0 18.746-8.393 18.746-18.746v-87.379z" fill="url(#SVGID_5_)"/></g><path d="m354.125 404.864h-198.25c-5.04 0-9.125-4.085-9.125-9.125v-28.167c0-5.04 4.085-9.125 9.125-9.125h198.25c5.04 0 9.125 4.085 9.125 9.125v28.167c0 5.04-4.085 9.125-9.125 9.125z" fill="url(#SVGID_6_)"/><g><path d="m70 246.864h-26.667c-5.523 0-10-4.477-10-10v-26.667c0-5.523 4.477-10 10-10h26.667c5.523 0 10 4.477 10 10v26.667c0 5.523-4.477 10-10 10z" fill="url(#SVGID_7_)"/><path d="m126.667 246.864h-26.667c-5.523 0-10-4.477-10-10v-26.667c0-5.523 4.477-10 10-10h26.667c5.523 0 10 4.477 10 10v26.667c0 5.523-4.477 10-10 10z" fill="url(#SVGID_8_)"/><path d="m183.333 246.864h-26.667c-5.523 0-10-4.477-10-10v-26.667c0-5.523 4.477-10 10-10h26.667c5.523 0 10 4.477 10 10v26.667c0 5.523-4.477 10-10 10z" fill="url(#SVGID_9_)"/><path d="m240 246.864h-26.667c-5.523 0-10-4.477-10-10v-26.667c0-5.523 4.477-10 10-10h26.667c5.523 0 10 4.477 10 10v26.667c0 5.523-4.477 10-10 10z" fill="url(#SVGID_10_)"/><path d="m296.667 246.864h-26.667c-5.523 0-10-4.477-10-10v-26.667c0-5.523 4.477-10 10-10h26.667c5.523 0 10 4.477 10 10v26.667c0 5.523-4.477 10-10 10z" fill="url(#SVGID_11_)"/><path d="m353.333 246.864h-26.667c-5.523 0-10-4.477-10-10v-26.667c0-5.523 4.477-10 10-10h26.667c5.523 0 10 4.477 10 10v26.667c0 5.523-4.477 10-10 10z" fill="url(#SVGID_12_)"/><path d="m410 246.864h-26.667c-5.523 0-10-4.477-10-10v-26.667c0-5.523 4.477-10 10-10h26.667c5.523 0 10 4.477 10 10v26.667c0 5.523-4.477 10-10 10z" fill="url(#SVGID_13_)"/><path d="m466.667 246.864h-26.667c-5.523 0-10-4.477-10-10v-26.667c0-5.523 4.477-10 10-10h26.667c5.523 0 10 4.477 10 10v26.667c0 5.523-4.477 10-10 10z" fill="url(#SVGID_14_)"/></g><g><path d="m70 299.531h-26.667c-5.523 0-10-4.477-10-10v-26.667c0-5.523 4.477-10 10-10h26.667c5.523 0 10 4.477 10 10v26.667c0 5.523-4.477 10-10 10z" fill="url(#SVGID_15_)"/><path d="m126.667 299.531h-26.667c-5.523 0-10-4.477-10-10v-26.667c0-5.523 4.477-10 10-10h26.667c5.523 0 10 4.477 10 10v26.667c0 5.523-4.477 10-10 10z" fill="url(#SVGID_16_)"/><path d="m183.333 299.531h-26.667c-5.523 0-10-4.477-10-10v-26.667c0-5.523 4.477-10 10-10h26.667c5.523 0 10 4.477 10 10v26.667c0 5.523-4.477 10-10 10z" fill="url(#SVGID_17_)"/><path d="m240 299.531h-26.667c-5.523 0-10-4.477-10-10v-26.667c0-5.523 4.477-10 10-10h26.667c5.523 0 10 4.477 10 10v26.667c0 5.523-4.477 10-10 10z" fill="url(#SVGID_18_)"/><path d="m296.667 299.531h-26.667c-5.523 0-10-4.477-10-10v-26.667c0-5.523 4.477-10 10-10h26.667c5.523 0 10 4.477 10 10v26.667c0 5.523-4.477 10-10 10z" fill="url(#SVGID_19_)"/><path d="m353.333 299.531h-26.667c-5.523 0-10-4.477-10-10v-26.667c0-5.523 4.477-10 10-10h26.667c5.523 0 10 4.477 10 10v26.667c0 5.523-4.477 10-10 10z" fill="url(#SVGID_20_)"/><path d="m410 299.531h-26.667c-5.523 0-10-4.477-10-10v-26.667c0-5.523 4.477-10 10-10h26.667c5.523 0 10 4.477 10 10v26.667c0 5.523-4.477 10-10 10z" fill="url(#SVGID_21_)"/><path d="m466.667 299.531h-26.667c-5.523 0-10-4.477-10-10v-26.667c0-5.523 4.477-10 10-10h26.667c5.523 0 10 4.477 10 10v26.667c0 5.523-4.477 10-10 10z" fill="url(#SVGID_22_)"/></g><g><path d="m70 352.198h-26.667c-5.523 0-10-4.477-10-10v-26.667c0-5.523 4.477-10 10-10h26.667c5.523 0 10 4.477 10 10v26.667c0 5.523-4.477 10-10 10z" fill="url(#SVGID_23_)"/><path d="m126.667 352.198h-26.667c-5.523 0-10-4.477-10-10v-26.667c0-5.523 4.477-10 10-10h26.667c5.523 0 10 4.477 10 10v26.667c0 5.523-4.477 10-10 10z" fill="url(#SVGID_24_)"/><path d="m183.333 352.198h-26.667c-5.523 0-10-4.477-10-10v-26.667c0-5.523 4.477-10 10-10h26.667c5.523 0 10 4.477 10 10v26.667c0 5.523-4.477 10-10 10z" fill="url(#SVGID_25_)"/><path d="m240 352.198h-26.667c-5.523 0-10-4.477-10-10v-26.667c0-5.523 4.477-10 10-10h26.667c5.523 0 10 4.477 10 10v26.667c0 5.523-4.477 10-10 10z" fill="url(#SVGID_26_)"/><path d="m296.667 352.198h-26.667c-5.523 0-10-4.477-10-10v-26.667c0-5.523 4.477-10 10-10h26.667c5.523 0 10 4.477 10 10v26.667c0 5.523-4.477 10-10 10z" fill="url(#SVGID_27_)"/><path d="m353.333 352.198h-26.667c-5.523 0-10-4.477-10-10v-26.667c0-5.523 4.477-10 10-10h26.667c5.523 0 10 4.477 10 10v26.667c0 5.523-4.477 10-10 10z" fill="url(#SVGID_28_)"/><path d="m410 352.198h-26.667c-5.523 0-10-4.477-10-10v-26.667c0-5.523 4.477-10 10-10h26.667c5.523 0 10 4.477 10 10v26.667c0 5.523-4.477 10-10 10z" fill="url(#SVGID_29_)"/><path d="m466.667 352.198h-26.667c-5.523 0-10-4.477-10-10v-26.667c0-5.523 4.477-10 10-10h26.667c5.523 0 10 4.477 10 10v26.667c0 5.523-4.477 10-10 10z" fill="url(#SVGID_30_)"/></g><g><path d="m70 404.864h-26.667c-5.523 0-10-4.477-10-10v-26.667c0-5.523 4.477-10 10-10h26.667c5.523 0 10 4.477 10 10v26.667c0 5.523-4.477 10-10 10z" fill="url(#SVGID_31_)"/><path d="m126.667 404.864h-26.667c-5.523 0-10-4.477-10-10v-26.667c0-5.523 4.477-10 10-10h26.667c5.523 0 10 4.477 10 10v26.667c0 5.523-4.477 10-10 10z" fill="url(#SVGID_32_)"/><path d="m410 404.864h-26.667c-5.523 0-10-4.477-10-10v-26.667c0-5.523 4.477-10 10-10h26.667c5.523 0 10 4.477 10 10v26.667c0 5.523-4.477 10-10 10z" fill="url(#SVGID_33_)"/><path d="m466.667 404.864h-26.667c-5.523 0-10-4.477-10-10v-26.667c0-5.523 4.477-10 10-10h26.667c5.523 0 10 4.477 10 10v26.667c0 5.523-4.477 10-10 10z" fill="url(#SVGID_34_)"/></g></g><g><path d="m327.84 436.42h-45.47l-233.229-233.229 22.155-23.315z" fill="url(#SVGID_35_)"/><path d="m453.15 436.42h-80.05l-257.11-257.12c-5.11-2.41-7.739-7.42-8.179-13.33h74.899l2.79 2.8z" fill="url(#SVGID_36_)"/><path d="m497.63 435.3c-1.99.73-4.14 1.12-6.38 1.12h-82.47l-234.1-234.1c-6.28-6.28-6.28-16.45 0-22.73l13.62-13.62h40.03v.03z" fill="url(#SVGID_37_)"/></g><g><path d="m510 356.57v45.47l-199.719-199.719 22.731-22.739z" fill="url(#SVGID_38_)"/><path d="m510 231.26v80.05l-132-132.01c-5.11-2.41-7.74-7.42-8.18-13.33h74.9l2.79 2.8z" fill="url(#SVGID_39_)"/><path d="m510 185.66v89.97l-73.31-73.31c-6.28-6.28-6.28-16.45 0-22.73l13.62-13.62h40.03v.03z" fill="url(#SVGID_40_)"/></g><path d="m376.894 436.425-181.561-181.561h-6.666v181.561z" fill="url(#SVGID_41_)"/><path d="m509.375 422.406-167.542-167.542h-6.667v181.561h156.087c8.718 0 16.024-5.959 18.122-14.019z" fill="url(#SVGID_42_)"/><path d="m510 417.679v-80.451l-40.697-40.697h-5.137v139.894h27.087c10.354 0 18.747-8.393 18.747-18.746z" fill="url(#SVGID_43_)"/><g><g><path d="m308.477 418.556-24.803-36.25c-6.986-10.211-5.71-23.95 3.039-32.699l24.788-24.788v93.736h-3.024" fill="url(#SVGID_44_)"/><path d="m327.759 249.538c10.936-.267 20.061 8.971 20.271 19.908l1.358 39.331 1.121-17.785c.263-10.729 9.035-19.289 19.767-19.289h.582c10.732 0 19.504 8.56 19.767 19.289l1.233 22.385 1.091-11.113c.299-10.701 9.06-19.221 19.766-19.221h.713c10.706 0 19.467 8.52 19.765 19.221l1.099 11.407h.131l.974-3.536c.33-10.677 9.081-19.162 19.764-19.162h.227c10.92 0 19.773 8.853 19.773 19.773v90.03c0 11.664-2.956 23.137-8.591 33.349l-6.062 10.985c-5.636 10.212-8.591 21.685-8.591 33.349v9.833c0 9.394-7.615 17.009-17.009 17.009h-86.177c-9.394 0-17.009-7.615-17.009-17.009v-9.833c0-11.664-2.956-23.137-8.591-33.349l-14.654-26.553v-149.252c0-10.756 8.588-19.506 19.282-19.767z" fill="url(#SVGID_45_)"/><path d="m308.477 269.3v70.45l13.743-13.743c5.488-5.488 14.389-5.488 19.889 0 2.744 2.744 6.339 4.127 9.933 4.127 3.606 0 7.2-1.383 9.944-4.127 2.755-2.744 6.35-4.116 9.944-4.116 3.606 0 7.2 1.372 9.944 4.116s6.339 4.127 9.944 4.127c3.606 0 7.2-1.383 9.944-4.127s6.339-4.116 9.944-4.116c3.594 0 7.189 1.372 9.944 4.116 2.744 2.744 6.339 4.127 9.944 4.127 3.595 0 7.189-1.383 9.933-4.127s6.35-4.116 9.944-4.116c3.606 0 7.2 1.372 9.944 4.116l13.743 13.743v-29.005c0-10.92-8.856-19.775-19.775-19.775h-.227c-10.681 0-19.435 8.482-19.764 19.163l-.975 3.538h-.125l-1.1-11.407c-.306-10.704-9.06-19.22-19.764-19.22h-.714c-10.704 0-19.469 8.516-19.764 19.22l-1.1 11.112-1.225-22.383c-.272-10.727-9.037-19.288-19.775-19.288h-.578c-10.727 0-19.503 8.561-19.764 19.288l-1.123 17.78-1.361-39.324c-.204-10.942-9.332-20.172-20.274-19.911-10.689.259-19.273 9.012-19.273 19.762z" fill="url(#SVGID_46_)"/><path d="m458.713 448.605c-4.463 9.303-6.796 19.502-6.796 29.853v9.833c0 9.394-7.615 17.009-17.009 17.009h-86.177c-9.394 0-17.009-7.615-17.009-17.009v-9.833c0-10.351-2.333-20.551-6.796-29.853z" fill="url(#SVGID_47_)"/></g><g><path d="m201.523 418.556 24.803-36.25c6.986-10.211 5.71-23.95-3.039-32.699l-24.788-24.788v93.736h3.024" fill="url(#SVGID_48_)"/><path d="m182.241 249.538c-10.936-.267-20.061 8.971-20.271 19.908l-1.358 39.331-1.121-17.785c-.263-10.729-9.035-19.289-19.767-19.289h-.582c-10.732 0-19.504 8.56-19.767 19.289l-1.234 22.385-1.091-11.113c-.299-10.701-9.06-19.221-19.766-19.221h-.713c-10.705 0-19.467 8.52-19.765 19.221l-1.099 11.407h-.131l-.974-3.536c-.33-10.677-9.081-19.162-19.764-19.162h-.227c-10.92 0-19.773 8.853-19.773 19.773v90.03c0 11.664 2.956 23.137 8.591 33.349l6.062 10.985c5.636 10.212 8.591 21.685 8.591 33.349v9.833c0 9.394 7.615 17.009 17.009 17.009h86.177c9.394 0 17.009-7.615 17.009-17.009v-9.833c0-11.664 2.956-23.137 8.591-33.349l14.654-26.553v-149.252c.001-10.756-8.587-19.506-19.281-19.767z" fill="url(#SVGID_49_)"/><path d="m201.523 269.3v70.45l-13.743-13.743c-5.488-5.488-14.389-5.488-19.889 0-2.744 2.744-6.339 4.127-9.933 4.127-3.606 0-7.2-1.383-9.944-4.127-2.755-2.744-6.35-4.116-9.944-4.116-3.606 0-7.2 1.372-9.944 4.116s-6.339 4.127-9.944 4.127c-3.606 0-7.2-1.383-9.944-4.127s-6.339-4.116-9.944-4.116c-3.594 0-7.189 1.372-9.944 4.116-2.744 2.744-6.339 4.127-9.944 4.127-3.595 0-7.189-1.383-9.933-4.127s-6.35-4.116-9.944-4.116c-3.606 0-7.2 1.372-9.944 4.116l-13.747 13.743v-29.005c0-10.92 8.856-19.775 19.775-19.775h.227c10.681 0 19.435 8.482 19.764 19.163l.975 3.538h.125l1.1-11.407c.306-10.704 9.06-19.22 19.764-19.22h.714c10.704 0 19.469 8.516 19.764 19.22l1.1 11.112 1.225-22.383c.272-10.727 9.037-19.288 19.775-19.288h.578c10.727 0 19.503 8.561 19.764 19.288l1.123 17.78 1.361-39.324c.204-10.942 9.332-20.172 20.274-19.911 10.693.259 19.277 9.012 19.277 19.762z" fill="url(#SVGID_50_)"/><path d="m51.287 448.605c4.463 9.303 6.796 19.502 6.796 29.853v9.833c0 9.394 7.615 17.009 17.009 17.009h86.177c9.394 0 17.009-7.615 17.009-17.009v-9.833c0-10.351 2.333-20.551 6.796-29.853z" fill="url(#SVGID_51_)"/></g></g></g><g><g><path d="m384.842 180.851c-8.878 0-16.076-7.197-16.076-16.076v-37.295c0-8.878 7.197-16.076 16.076-16.076 8.878 0 16.076 7.197 16.076 16.076v37.295c-.001 8.879-7.198 16.076-16.076 16.076z" fill="url(#SVGID_52_)"/><path d="m333.008 179.587c6.278 6.278 6.278 16.456 0 22.734-6.278 6.278-16.456 6.278-22.734 0l-26.372-26.372c-6.278-6.278-6.278-16.456 0-22.734 6.278-6.278 16.456-6.278 22.734 0z" fill="url(#SVGID_53_)"/><path d="m436.676 202.322c-6.278-6.278-6.278-16.456 0-22.734l26.372-26.372c6.278-6.278 16.456-6.278 22.734 0 6.278 6.278 6.278 16.456 0 22.734l-26.372 26.372c-6.278 6.278-16.456 6.278-22.734 0z" fill="url(#SVGID_54_)"/></g><g><path d="m122.842 180.851c-8.878 0-16.076-7.197-16.076-16.076v-37.295c0-8.878 7.197-16.076 16.076-16.076 8.878 0 16.076 7.197 16.076 16.076v37.295c-.001 8.879-7.198 16.076-16.076 16.076z" fill="url(#SVGID_55_)"/><path d="m71.008 179.587c6.278 6.278 6.278 16.456 0 22.734-6.278 6.278-16.456 6.278-22.734 0l-26.372-26.371c-6.278-6.278-6.278-16.456 0-22.734 6.278-6.278 16.456-6.278 22.734 0z" fill="url(#SVGID_56_)"/><path d="m174.676 202.322c-6.278-6.278-6.278-16.456 0-22.734l26.372-26.372c6.278-6.278 16.456-6.278 22.734 0 6.278 6.278 6.278 16.456 0 22.734l-26.372 26.372c-6.278 6.278-16.456 6.278-22.734 0z" fill="url(#SVGID_57_)"/></g></g></g></svg>