<svg width="601" height="140" viewBox="0 0 601 140" fill="none" xmlns="http://www.w3.org/2000/svg">
<g clip-path="url(#clip0)">
<rect width="601" height="140" fill="white"/>
<path d="M51.2926 100C48.0926 100 44.7592 99.6 41.2926 98.8C37.8926 97.9333 35.4592 96.9333 33.9926 95.8L37.5926 87.3C41.5926 90.1 46.1592 91.5 51.2926 91.5C56.4259 91.5 58.9926 90 58.9926 87C58.9926 85.6667 58.4592 84.6333 57.3926 83.9C56.3259 83.1667 54.4259 82.3 51.6926 81.3L47.8926 79.9C43.8926 78.3 40.7259 76.4 38.3926 74.2C36.0592 71.9333 34.8926 68.9667 34.8926 65.3C34.8926 61.1 36.5259 57.8333 39.7926 55.5C43.1259 53.1 47.5592 51.9 53.0926 51.9C55.8259 51.9 58.4926 52.2 61.0926 52.8C63.7592 53.4 65.7926 54.1667 67.1926 55.1L63.2926 63.7C62.4259 62.8333 61.0259 62.1 59.0926 61.5C57.2259 60.8333 55.1259 60.5 52.7926 60.5C48.0592 60.5 45.6926 61.9333 45.6926 64.8C45.6926 66.4 46.3259 67.6333 47.5926 68.5C48.8592 69.3 50.9259 70.2 53.7926 71.2C54.0592 71.2667 55.0926 71.6333 56.8926 72.3C61.1592 73.9667 64.3259 75.8667 66.3926 78C68.4592 80.1333 69.4926 82.8667 69.4926 86.2C69.4926 90.7333 67.7592 94.1667 64.2926 96.5C60.8926 98.8333 56.5592 100 51.2926 100Z" fill="#4C9FEB"/>
<path d="M41.2926 98.8L41.0456 99.769L41.0566 99.7718L41.0677 99.7744L41.2926 98.8ZM33.9926 95.8L33.0718 95.41L32.7711 96.1199L33.3811 96.5913L33.9926 95.8ZM37.5926 87.3L38.166 86.4808L37.1537 85.7721L36.6718 86.91L37.5926 87.3ZM57.3926 83.9L57.9591 83.076L57.9591 83.076L57.3926 83.9ZM51.6926 81.3L51.3469 82.2383L51.349 82.2391L51.6926 81.3ZM47.8926 79.9L47.5212 80.8285L47.534 80.8336L47.5469 80.8383L47.8926 79.9ZM38.3926 74.2L37.6958 74.9173L37.7011 74.9225L37.7066 74.9276L38.3926 74.2ZM39.7926 55.5L40.3738 56.3137L40.3769 56.3115L39.7926 55.5ZM61.0926 52.8L60.8677 53.7744L60.8731 53.7756L61.0926 52.8ZM67.1926 55.1L68.1033 55.513L68.4542 54.7392L67.7473 54.2679L67.1926 55.1ZM63.2926 63.7L62.5855 64.4071L63.6068 65.4284L64.2033 64.113L63.2926 63.7ZM59.0926 61.5L58.7562 62.4417L58.7761 62.4488L58.7962 62.4551L59.0926 61.5ZM47.5926 68.5L47.0279 69.3253L47.0431 69.3357L47.0586 69.3455L47.5926 68.5ZM53.7926 71.2L53.4632 72.1442L53.506 72.1591L53.55 72.1701L53.7926 71.2ZM56.8926 72.3L57.2564 71.3685L57.2482 71.3653L57.2399 71.3622L56.8926 72.3ZM66.3926 78L67.1108 77.3042L67.1108 77.3042L66.3926 78ZM64.2926 96.5L63.7342 95.6704L63.7267 95.6755L64.2926 96.5ZM51.2926 99C48.1761 99 44.9185 98.6105 41.5174 97.8256L41.0677 99.7744C44.6 100.59 48.009 101 51.2926 101V99ZM41.5396 97.831C38.1748 96.9733 35.9045 96.0136 34.604 95.0087L33.3811 96.5913C35.014 97.853 37.6104 98.8934 41.0456 99.769L41.5396 97.831ZM34.9134 96.19L38.5134 87.69L36.6718 86.91L33.0718 95.41L34.9134 96.19ZM37.0191 88.1192C41.1961 91.0431 45.9652 92.5 51.2926 92.5V90.5C46.3532 90.5 41.989 89.1569 38.166 86.4808L37.0191 88.1192ZM51.2926 92.5C53.9239 92.5 56.0613 92.1213 57.5721 91.2384C59.1658 90.307 59.9926 88.8514 59.9926 87H57.9926C57.9926 88.1486 57.5361 88.943 56.563 89.5116C55.5072 90.1287 53.7946 90.5 51.2926 90.5V92.5ZM59.9926 87C59.9926 85.3492 59.3067 84.0024 57.9591 83.076L56.8261 84.724C57.6118 85.2642 57.9926 85.9841 57.9926 87H59.9926ZM57.9591 83.076C56.7798 82.2652 54.7753 81.363 52.0362 80.3609L51.349 82.2391C54.0765 83.237 55.872 84.0681 56.8261 84.724L57.9591 83.076ZM52.0383 80.3617L48.2383 78.9617L47.5469 80.8383L51.3469 82.2383L52.0383 80.3617ZM48.264 78.9715C44.3429 77.4031 41.2951 75.5623 39.0786 73.4724L37.7066 74.9276C40.1567 77.2377 43.4423 79.1969 47.5212 80.8285L48.264 78.9715ZM39.0894 73.4827C36.9753 71.4291 35.8926 68.7341 35.8926 65.3H33.8926C33.8926 69.1992 35.1432 72.4376 37.6958 74.9173L39.0894 73.4827ZM35.8926 65.3C35.8926 61.4053 37.384 58.4493 40.3738 56.3137L39.2113 54.6863C35.6679 57.2173 33.8926 60.7947 33.8926 65.3H35.8926ZM40.3769 56.3115C43.4899 54.0702 47.6973 52.9 53.0926 52.9V50.9C47.4212 50.9 42.762 52.1298 39.2083 54.6885L40.3769 56.3115ZM53.0926 52.9C55.7521 52.9 58.3432 53.1918 60.8677 53.7744L61.3174 51.8256C58.6419 51.2082 55.8997 50.9 53.0926 50.9V52.9ZM60.8731 53.7756C63.4854 54.3634 65.3837 55.0959 66.6379 55.932L67.7473 54.2679C66.2015 53.2374 64.0331 52.4366 61.3121 51.8244L60.8731 53.7756ZM66.2819 54.687L62.3819 63.287L64.2033 64.113L68.1033 55.513L66.2819 54.687ZM63.9997 62.9929C62.9666 61.9598 61.388 61.1653 59.389 60.5449L58.7962 62.4551C60.6638 63.0347 61.8852 63.7068 62.5855 64.4071L63.9997 62.9929ZM59.4289 60.5583C57.4371 59.8469 55.2207 59.5 52.7926 59.5V61.5C55.0311 61.5 57.0148 61.8198 58.7562 62.4417L59.4289 60.5583ZM52.7926 59.5C50.3576 59.5 48.3642 59.8629 46.9495 60.7196C45.4541 61.6254 44.6926 63.0323 44.6926 64.8H46.6926C46.6926 63.701 47.1144 62.958 47.9856 62.4304C48.9376 61.8538 50.4943 61.5 52.7926 61.5V59.5ZM44.6926 64.8C44.6926 66.7134 45.4753 68.263 47.0279 69.3253L48.1573 67.6747C47.1765 67.0037 46.6926 66.0866 46.6926 64.8H44.6926ZM47.0586 69.3455C48.426 70.2091 50.5822 71.1392 53.4632 72.1442L54.122 70.2558C51.2696 69.2608 49.2925 68.3909 48.1266 67.6545L47.0586 69.3455ZM53.55 72.1701C53.7479 72.2196 54.7088 72.5576 56.5453 73.2377L57.2399 71.3622C55.4764 70.7091 54.3706 70.3137 54.0351 70.2299L53.55 72.1701ZM56.5287 73.2315C60.727 74.8714 63.7469 76.7062 65.6743 78.6958L67.1108 77.3042C64.9049 75.0272 61.5915 73.0619 57.2564 71.3685L56.5287 73.2315ZM65.6743 78.6958C67.5376 80.6192 68.4926 83.0919 68.4926 86.2H70.4926C70.4926 82.6415 69.3809 79.6475 67.1108 77.3042L65.6743 78.6958ZM68.4926 86.2C68.4926 90.4339 66.8982 93.5408 63.7342 95.6704L64.851 97.3296C68.6203 94.7925 70.4926 91.0327 70.4926 86.2H68.4926ZM63.7267 95.6755C60.5341 97.8665 56.4131 99 51.2926 99V101C56.7054 101 61.2511 99.8001 64.8584 97.3245L63.7267 95.6755Z" fill="white"/>
<path d="M65.8402 25.5H76.3402V53.1L75.9402 61.6C77.2069 58.8 79.2402 56.5 82.0402 54.7C84.8402 52.8333 88.1069 51.9 91.8402 51.9C96.5736 51.9 100.207 52.9 102.74 54.9C105.274 56.8333 106.974 59.5667 107.84 63.1C108.707 66.6333 109.14 71.2333 109.14 76.9V99H98.4402V76.8C98.4402 72.9333 98.2069 69.9 97.7402 67.7C97.3402 65.5 96.4736 63.8333 95.1402 62.7C93.8736 61.5667 92.0069 61 89.5402 61C87.5402 61 85.5069 61.6 83.4402 62.8C81.4402 64 79.7736 65.7667 78.4402 68.1C77.1069 70.3667 76.4402 73.0667 76.4402 76.2V99H65.8402V25.5Z" fill="#4C9FEB"/>
<path d="M65.8402 25.5V24.5H64.8402V25.5H65.8402ZM76.3402 25.5H77.3402V24.5H76.3402V25.5ZM76.3402 53.1L77.3391 53.147L77.3402 53.1235V53.1H76.3402ZM75.9402 61.6L74.9413 61.553L76.8513 62.0122L75.9402 61.6ZM82.0402 54.7L82.581 55.5412L82.588 55.5367L82.5949 55.532L82.0402 54.7ZM102.74 54.9L102.121 55.6849L102.127 55.69L102.134 55.6949L102.74 54.9ZM107.84 63.1L108.811 62.8618L108.811 62.8618L107.84 63.1ZM109.14 99V100H110.14V99H109.14ZM98.4402 99H97.4402V100H98.4402V99ZM97.7402 67.7L96.7564 67.8789L96.759 67.8932L96.762 67.9075L97.7402 67.7ZM95.1402 62.7L94.4734 63.4452L94.4829 63.4537L94.4926 63.4619L95.1402 62.7ZM83.4402 62.8L82.9381 61.9352L82.9319 61.9388L82.9257 61.9425L83.4402 62.8ZM78.4402 68.1L79.3022 68.6071L79.3085 68.5961L78.4402 68.1ZM76.4402 99V100H77.4402V99H76.4402ZM65.8402 99H64.8402V100H65.8402V99ZM65.8402 26.5H76.3402V24.5H65.8402V26.5ZM75.3402 25.5V53.1H77.3402V25.5H75.3402ZM75.3413 53.053L74.9413 61.553L76.9391 61.647L77.3391 53.147L75.3413 53.053ZM76.8513 62.0122C78.0319 59.4025 79.9292 57.2459 82.581 55.5412L81.4995 53.8588C78.5513 55.7541 76.3819 58.1975 75.0291 61.1878L76.8513 62.0122ZM82.5949 55.532C85.2129 53.7867 88.2819 52.9 91.8402 52.9V50.9C87.9319 50.9 84.4675 51.88 81.4855 53.8679L82.5949 55.532ZM91.8402 52.9C96.4499 52.9 99.8295 53.8761 102.121 55.6849L103.36 54.1151C100.584 51.9239 96.6972 50.9 91.8402 50.9V52.9ZM102.134 55.6949C104.46 57.4704 106.049 59.9935 106.869 63.3382L108.811 62.8618C107.899 59.1398 106.087 56.1962 103.347 54.105L102.134 55.6949ZM106.869 63.3382C107.709 66.763 108.14 71.2744 108.14 76.9H110.14C110.14 71.1923 109.705 66.5037 108.811 62.8618L106.869 63.3382ZM108.14 76.9V99H110.14V76.9H108.14ZM109.14 98H98.4402V100H109.14V98ZM99.4402 99V76.8H97.4402V99H99.4402ZM99.4402 76.8C99.4402 72.9057 99.2063 69.7923 98.7185 67.4925L96.762 67.9075C97.2075 70.0077 97.4402 72.961 97.4402 76.8H99.4402ZM98.7241 67.5211C98.2945 65.1581 97.3414 63.2586 95.7879 61.9381L94.4926 63.4619C95.6057 64.4081 96.386 65.8419 96.7564 67.8789L98.7241 67.5211ZM95.807 61.9548C94.2892 60.5967 92.1436 60 89.5402 60V62C91.8702 62 93.4579 62.5366 94.4734 63.4452L95.807 61.9548ZM89.5402 60C87.3323 60 85.1275 60.664 82.9381 61.9352L83.9424 63.6648C85.8863 62.536 87.7482 62 89.5402 62V60ZM82.9257 61.9425C80.7577 63.2433 78.9773 65.1447 77.572 67.6039L79.3085 68.5961C80.5699 66.3887 82.1227 64.7567 83.9547 63.6575L82.9257 61.9425ZM77.5783 67.593C76.1386 70.0404 75.4402 72.9227 75.4402 76.2H77.4402C77.4402 73.2107 78.0752 70.6929 79.3022 68.607L77.5783 67.593ZM75.4402 76.2V99H77.4402V76.2H75.4402ZM76.4402 98H65.8402V100H76.4402V98ZM66.8402 99V25.5H64.8402V99H66.8402Z" fill="white"/>
<path d="M130.033 100C125.3 100 121.1 98.9333 117.433 96.8C113.767 94.6667 110.933 91.7667 108.933 88.1C106.933 84.4333 105.933 80.3667 105.933 75.9C105.933 71.5 106.9 67.4667 108.833 63.8C110.833 60.1333 113.667 57.2333 117.333 55.1C121 52.9667 125.233 51.9 130.033 51.9C134.833 51.9 139.033 52.9667 142.633 55.1C146.3 57.2333 149.1 60.1333 151.033 63.8C153.033 67.4667 154.033 71.5 154.033 75.9C154.033 80.3667 153.033 84.4333 151.033 88.1C149.033 91.7667 146.2 94.6667 142.533 96.8C138.933 98.9333 134.767 100 130.033 100ZM130.333 91.2C134.2 91.2 137.233 89.7667 139.433 86.9C141.7 84.0333 142.833 80.4333 142.833 76.1C142.833 71.7667 141.633 68.1333 139.233 65.2C136.833 62.2 133.667 60.7 129.733 60.7C125.933 60.7 122.867 62.1667 120.533 65.1C118.267 68.0333 117.133 71.7 117.133 76.1C117.133 80.3667 118.367 83.9667 120.833 86.9C123.3 89.7667 126.467 91.2 130.333 91.2Z" fill="#4C9FEB"/>
<path d="M117.433 96.8L117.936 95.9357L117.936 95.9357L117.433 96.8ZM108.933 88.1L108.055 88.5789L108.933 88.1ZM108.833 63.8L107.955 63.3211L107.949 63.3336L108.833 63.8ZM117.333 55.1L116.83 54.2357L116.83 54.2357L117.333 55.1ZM142.633 55.1L142.123 55.9603L142.13 55.9643L142.633 55.1ZM151.033 63.8L150.149 64.2665L150.155 64.2788L151.033 63.8ZM151.033 88.1L150.155 87.6211L151.033 88.1ZM142.533 96.8L142.03 95.9356L142.023 95.9397L142.533 96.8ZM139.433 86.9L138.649 86.2798L138.644 86.2854L138.64 86.2912L139.433 86.9ZM139.233 65.2L138.452 65.8247L138.459 65.8332L139.233 65.2ZM120.533 65.1L119.751 64.4774L119.742 64.4886L120.533 65.1ZM120.833 86.9L120.068 87.5436L120.075 87.5522L120.833 86.9ZM130.033 99C125.456 99 121.433 97.9702 117.936 95.9357L116.93 97.6643C120.767 99.8965 125.144 101 130.033 101V99ZM117.936 95.9357C114.425 93.8926 111.722 91.1249 109.811 87.6211L108.055 88.5789C110.144 92.4085 113.108 95.4407 116.93 97.6643L117.936 95.9357ZM109.811 87.6211C107.897 84.1115 106.933 80.2113 106.933 75.9H104.933C104.933 80.522 105.97 84.7551 108.055 88.5789L109.811 87.6211ZM106.933 75.9C106.933 71.6522 107.865 67.7805 109.718 64.2664L107.949 63.3336C105.935 67.1529 104.933 71.3477 104.933 75.9H106.933ZM109.711 64.2788C111.622 60.7751 114.325 58.0074 117.836 55.9643L116.83 54.2357C113.008 56.4593 110.044 59.4915 107.955 63.3211L109.711 64.2788ZM117.836 55.9643C121.331 53.9311 125.386 52.9 130.033 52.9V50.9C125.08 50.9 120.669 52.0023 116.83 54.2357L117.836 55.9643ZM130.033 52.9C134.681 52.9 138.699 53.9312 142.123 55.9603L143.143 54.2397C139.367 52.0021 134.986 50.9 130.033 50.9V52.9ZM142.13 55.9643C145.639 58.0058 148.305 60.7696 150.149 64.2664L151.918 63.3336C149.895 59.4971 146.961 56.4609 143.136 54.2357L142.13 55.9643ZM150.155 64.2788C152.071 67.7907 153.033 71.6581 153.033 75.9H155.033C155.033 71.3419 153.996 67.1426 151.911 63.3211L150.155 64.2788ZM153.033 75.9C153.033 80.2113 152.07 84.1115 150.155 87.6211L151.911 88.5789C153.997 84.7551 155.033 80.522 155.033 75.9H153.033ZM150.155 87.6211C148.244 91.1249 145.542 93.8926 142.03 95.9357L143.036 97.6643C146.858 95.4407 149.822 92.4085 151.911 88.5789L150.155 87.6211ZM142.023 95.9397C138.597 97.9701 134.611 99 130.033 99V101C134.922 101 139.269 99.8966 143.043 97.6603L142.023 95.9397ZM130.333 92.2C134.486 92.2 137.822 90.6414 140.227 87.5088L138.64 86.2912C136.644 88.8919 133.914 90.2 130.333 90.2V92.2ZM140.218 87.5202C142.649 84.4457 143.833 80.615 143.833 76.1H141.833C141.833 80.2517 140.751 83.621 138.649 86.2798L140.218 87.5202ZM143.833 76.1C143.833 71.5707 142.574 67.704 140.007 64.5668L138.459 65.8332C140.692 68.5626 141.833 71.9626 141.833 76.1H143.833ZM140.014 64.5753C137.419 61.3316 133.962 59.7 129.733 59.7V61.7C133.371 61.7 136.247 63.0684 138.452 65.8247L140.014 64.5753ZM129.733 59.7C125.633 59.7 122.277 61.3018 119.751 64.4775L121.316 65.7225C123.456 63.0315 126.233 61.7 129.733 61.7V59.7ZM119.742 64.4886C117.316 67.6281 116.133 71.5215 116.133 76.1H118.133C118.133 71.8784 119.217 68.4385 121.324 65.7114L119.742 64.4886ZM116.133 76.1C116.133 80.5737 117.432 84.4094 120.068 87.5436L121.599 86.2564C119.301 83.5239 118.133 80.1597 118.133 76.1H116.133ZM120.075 87.5522C122.737 90.6453 126.183 92.2 130.333 92.2V90.2C126.75 90.2 123.863 88.888 121.591 86.2478L120.075 87.5522Z" fill="white"/>
<path d="M150.831 53.1H161.631V62.1C162.698 59.0333 164.431 56.5667 166.831 54.7C169.231 52.8333 171.965 51.9 175.031 51.9C177.165 51.9 178.631 52.1 179.431 52.5L177.931 63.4C177.331 63 176.031 62.8 174.031 62.8C170.898 62.8 168.031 63.8 165.431 65.8C162.898 67.8 161.631 71 161.631 75.4V99H150.831V53.1Z" fill="#4C9FEB"/>
<path d="M150.831 53.1V52.1H149.831V53.1H150.831ZM161.631 53.1H162.631V52.1H161.631V53.1ZM161.631 62.1H160.631L162.576 62.4285L161.631 62.1ZM166.831 54.7L167.445 55.4894L167.445 55.4894L166.831 54.7ZM179.431 52.5L180.422 52.6363L180.52 51.9262L179.878 51.6056L179.431 52.5ZM177.931 63.4L177.377 64.232L178.704 65.1173L178.922 63.5363L177.931 63.4ZM165.431 65.8L164.821 65.0073L164.812 65.0151L165.431 65.8ZM161.631 99V100H162.631V99H161.631ZM150.831 99H149.831V100H150.831V99ZM150.831 54.1H161.631V52.1H150.831V54.1ZM160.631 53.1V62.1H162.631V53.1H160.631ZM162.576 62.4285C163.584 59.5312 165.208 57.2294 167.445 55.4894L166.217 53.9106C163.654 55.904 161.812 58.5355 160.687 61.7715L162.576 62.4285ZM167.445 55.4894C169.668 53.7605 172.185 52.9 175.031 52.9V50.9C171.744 50.9 168.794 51.9062 166.217 53.9106L167.445 55.4894ZM175.031 52.9C177.168 52.9 178.417 53.1107 178.984 53.3944L179.878 51.6056C178.846 51.0893 177.161 50.9 175.031 50.9V52.9ZM178.441 52.3637L176.941 63.2637L178.922 63.5363L180.422 52.6363L178.441 52.3637ZM178.486 62.5679C178.002 62.2455 177.353 62.0685 176.658 61.9616C175.939 61.851 175.059 61.8 174.031 61.8V63.8C175.004 63.8 175.773 63.849 176.354 63.9384C176.96 64.0315 177.26 64.1545 177.377 64.232L178.486 62.5679ZM174.031 61.8C170.667 61.8 167.588 62.8797 164.822 65.0074L166.041 66.5926C168.475 64.7203 171.129 63.8 174.031 63.8V61.8ZM164.812 65.0151C161.958 67.2677 160.631 70.8124 160.631 75.4H162.631C162.631 71.1875 163.838 68.3323 166.051 66.5849L164.812 65.0151ZM160.631 75.4V99H162.631V75.4H160.631ZM161.631 98H150.831V100H161.631V98ZM151.831 99V53.1H149.831V99H151.831Z" fill="white"/>
<path d="M178.961 61.9H170.861V53.1H178.961V34.4L189.861 32V53.1H200.461V61.9H189.861V99H178.961V61.9Z" fill="#4C9FEB"/>
<path d="M178.961 61.9H179.961V60.9H178.961V61.9ZM170.861 61.9H169.861V62.9H170.861V61.9ZM170.861 53.1V52.1H169.861V53.1H170.861ZM178.961 53.1V54.1H179.961V53.1H178.961ZM178.961 34.4L178.746 33.4234L177.961 33.5962V34.4H178.961ZM189.861 32H190.861V30.7559L189.646 31.0234L189.861 32ZM189.861 53.1H188.861V54.1H189.861V53.1ZM200.461 53.1H201.461V52.1H200.461V53.1ZM200.461 61.9V62.9H201.461V61.9H200.461ZM189.861 61.9V60.9H188.861V61.9H189.861ZM189.861 99V100H190.861V99H189.861ZM178.961 99H177.961V100H178.961V99ZM178.961 60.9H170.861V62.9H178.961V60.9ZM171.861 61.9V53.1H169.861V61.9H171.861ZM170.861 54.1H178.961V52.1H170.861V54.1ZM179.961 53.1V34.4H177.961V53.1H179.961ZM179.176 35.3766L190.076 32.9766L189.646 31.0234L178.746 33.4234L179.176 35.3766ZM188.861 32V53.1H190.861V32H188.861ZM189.861 54.1H200.461V52.1H189.861V54.1ZM199.461 53.1V61.9H201.461V53.1H199.461ZM200.461 60.9H189.861V62.9H200.461V60.9ZM188.861 61.9V99H190.861V61.9H188.861ZM189.861 98H178.961V100H189.861V98ZM179.961 99V61.9H177.961V99H179.961Z" fill="white"/>
<path d="M216.209 100C211.676 100 207.576 99.0333 203.909 97.1C200.309 95.1 197.442 92.2667 195.309 88.6C193.176 84.8667 192.109 80.5 192.109 75.5C192.109 70.7667 193.076 66.6333 195.009 63.1C197.009 59.5 199.776 56.7333 203.309 54.8C206.909 52.8667 211.042 51.9 215.709 51.9C219.242 51.9 222.276 52.3667 224.809 53.3C227.409 54.1667 229.442 55.2667 230.909 56.6L226.109 65.3C223.309 62.5 220.142 61.1 216.609 61.1C212.342 61.1 209.076 62.4 206.809 65C204.609 67.6 203.509 71.0667 203.509 75.4C203.509 80.3333 204.642 84.1667 206.909 86.9C209.242 89.6333 212.476 91 216.609 91C218.676 91 220.676 90.7 222.609 90.1C224.609 89.5 226.142 88.8 227.209 88L231.109 95.6C229.642 96.7333 227.576 97.7667 224.909 98.7C222.309 99.5667 219.409 100 216.209 100Z" fill="#4C9FEB"/>
<path d="M203.909 97.1L203.423 97.9742L203.433 97.9795L203.443 97.9846L203.909 97.1ZM195.309 88.6L194.441 89.0962L194.445 89.1029L195.309 88.6ZM195.009 63.1L194.135 62.6143L194.132 62.62L195.009 63.1ZM203.309 54.8L202.836 53.919L202.829 53.9227L203.309 54.8ZM224.809 53.3L224.463 54.2383L224.478 54.2437L224.493 54.2487L224.809 53.3ZM230.909 56.6L231.785 57.0831L232.166 56.3914L231.582 55.8601L230.909 56.6ZM226.109 65.3L225.402 66.0071L226.342 66.9474L226.985 65.7831L226.109 65.3ZM206.809 65L206.055 64.3429L206.05 64.3484L206.046 64.3541L206.809 65ZM206.909 86.9L206.139 87.5383L206.144 87.5438L206.148 87.5493L206.909 86.9ZM222.609 90.1L222.322 89.1421L222.313 89.1449L222.609 90.1ZM227.209 88L228.099 87.5434L227.557 86.4887L226.609 87.2L227.209 88ZM231.109 95.6L231.72 96.3913L232.378 95.883L231.999 95.1434L231.109 95.6ZM224.909 98.7L225.225 99.6487L225.232 99.6463L225.239 99.6439L224.909 98.7ZM216.209 99C211.823 99 207.885 98.066 204.375 96.2154L203.443 97.9846C207.266 100.001 211.529 101 216.209 101V99ZM204.395 96.2258C200.957 94.316 198.219 91.6131 196.173 88.0971L194.445 89.1029C196.666 92.9202 199.661 95.884 203.423 97.9742L204.395 96.2258ZM196.177 88.1039C194.143 84.5447 193.109 80.3546 193.109 75.5H191.109C191.109 80.6454 192.208 85.1887 194.441 89.0961L196.177 88.1039ZM193.109 75.5C193.109 70.905 194.046 66.9423 195.886 63.58L194.132 62.62C192.105 66.3244 191.109 70.6284 191.109 75.5H193.109ZM195.883 63.5856C197.794 60.1469 200.425 57.5178 203.789 55.6773L202.829 53.9227C199.126 55.9489 196.224 58.8531 194.135 62.6144L195.883 63.5856ZM203.782 55.681C207.217 53.8363 211.184 52.9 215.709 52.9V50.9C210.901 50.9 206.601 51.8971 202.836 53.919L203.782 55.681ZM215.709 52.9C219.159 52.9 222.069 53.3562 224.463 54.2383L225.155 52.3617C222.482 51.3771 219.326 50.9 215.709 50.9V52.9ZM224.493 54.2487C227.008 55.0871 228.904 56.1288 230.236 57.3399L231.582 55.8601C229.981 54.4045 227.81 53.2462 225.125 52.3513L224.493 54.2487ZM230.033 56.1169L225.233 64.8169L226.985 65.7831L231.785 57.0831L230.033 56.1169ZM226.816 64.5929C223.853 61.6301 220.441 60.1 216.609 60.1V62.1C219.844 62.1 222.765 63.3699 225.402 66.0071L226.816 64.5929ZM216.609 60.1C212.128 60.1 208.556 61.4747 206.055 64.3429L207.563 65.6571C209.596 63.3253 212.557 62.1 216.609 62.1V60.1ZM206.046 64.3541C203.655 67.1793 202.509 70.8961 202.509 75.4H204.509C204.509 71.2372 205.563 68.0207 207.572 65.6459L206.046 64.3541ZM202.509 75.4C202.509 80.4765 203.675 84.5668 206.139 87.5383L207.679 86.2617C205.61 83.7666 204.509 80.1902 204.509 75.4H202.509ZM206.148 87.5493C208.701 90.5398 212.232 92 216.609 92V90C212.719 90 209.783 88.7268 207.67 86.2507L206.148 87.5493ZM216.609 92C218.774 92 220.874 91.6855 222.905 91.0551L222.313 89.1449C220.477 89.7145 218.577 90 216.609 90V92ZM222.896 91.0578C224.953 90.441 226.61 89.6989 227.809 88.8L226.609 87.2C225.674 87.9011 224.265 88.559 222.322 89.1422L222.896 91.0578ZM226.319 88.4566L230.219 96.0566L231.999 95.1434L228.099 87.5434L226.319 88.4566ZM230.498 94.8087C229.148 95.8515 227.191 96.8417 224.579 97.7561L225.239 99.6439C227.96 98.6916 230.137 97.6151 231.72 96.3913L230.498 94.8087ZM224.593 97.7513C222.11 98.5788 219.319 99 216.209 99V101C219.499 101 222.508 100.554 225.225 99.6487L224.593 97.7513Z" fill="white"/>
<path d="M243.217 100C236.883 100 232.517 98.1333 230.117 94.4C227.783 90.6667 226.617 85.4667 226.617 78.8V53.1H237.417V76.1C237.417 79.9 237.617 82.8667 238.017 85C238.483 87.0667 239.35 88.6 240.617 89.6C241.95 90.6 243.917 91.1 246.517 91.1C248.383 91.1 250.183 90.5667 251.917 89.5C253.65 88.4333 255.05 87 256.117 85.2C257.25 83.3333 257.817 81.3 257.817 79.1V53.1H268.517V99H259.717L258.517 92.3C256.85 94.9 254.75 96.8333 252.217 98.1C249.75 99.3667 246.75 100 243.217 100Z" fill="#4C9FEB"/>
<path d="M230.117 94.4L229.269 94.93L229.276 94.9408L230.117 94.4ZM226.617 53.1V52.1H225.617V53.1H226.617ZM237.417 53.1H238.417V52.1H237.417V53.1ZM238.017 85L237.034 85.1843L237.037 85.2023L237.041 85.2203L238.017 85ZM240.617 89.6L239.997 90.3849L240.007 90.3926L240.017 90.4L240.617 89.6ZM251.917 89.5L251.393 88.6483L251.393 88.6483L251.917 89.5ZM256.117 85.2L255.262 84.681L255.257 84.6902L256.117 85.2ZM257.817 53.1V52.1H256.817V53.1H257.817ZM268.517 53.1H269.517V52.1H268.517V53.1ZM268.517 99V100H269.517V99H268.517ZM259.717 99L258.732 99.1763L258.88 100H259.717V99ZM258.517 92.3L259.501 92.1237L259.051 89.6129L257.675 91.7603L258.517 92.3ZM252.217 98.1L251.77 97.2055L251.76 97.2104L252.217 98.1ZM243.217 99C237.066 99 233.102 97.1949 230.958 93.8592L229.276 94.9408C231.931 99.0718 236.701 101 243.217 101V99ZM230.965 93.87C228.769 90.3574 227.617 85.3688 227.617 78.8H225.617C225.617 85.5646 226.797 90.9759 229.269 94.93L230.965 93.87ZM227.617 78.8V53.1H225.617V78.8H227.617ZM226.617 54.1H237.417V52.1H226.617V54.1ZM236.417 53.1V76.1H238.417V53.1H236.417ZM236.417 76.1C236.417 79.9232 236.617 82.9614 237.034 85.1843L239 84.8157C238.616 82.772 238.417 79.8768 238.417 76.1H236.417ZM237.041 85.2203C237.543 87.4399 238.501 89.2039 239.997 90.3849L241.236 88.8151C240.199 87.9961 239.424 86.6935 238.992 84.7797L237.041 85.2203ZM240.017 90.4C241.596 91.5844 243.814 92.1 246.517 92.1V90.1C244.02 90.1 242.304 89.6156 241.217 88.8L240.017 90.4ZM246.517 92.1C248.585 92.1 250.565 91.5062 252.441 90.3517L251.393 88.6483C249.802 89.6271 248.182 90.1 246.517 90.1V92.1ZM252.441 90.3517C254.316 89.1975 255.83 87.6453 256.977 85.7098L255.257 84.6902C254.27 86.3547 252.984 87.6691 251.393 88.6483L252.441 90.3517ZM256.972 85.719C258.201 83.6946 258.817 81.4816 258.817 79.1H256.817C256.817 81.1184 256.3 82.972 255.262 84.681L256.972 85.719ZM258.817 79.1V53.1H256.817V79.1H258.817ZM257.817 54.1H268.517V52.1H257.817V54.1ZM267.517 53.1V99H269.517V53.1H267.517ZM268.517 98H259.717V100H268.517V98ZM260.701 98.8237L259.501 92.1237L257.532 92.4763L258.732 99.1763L260.701 98.8237ZM257.675 91.7603C256.096 94.2228 254.127 96.0267 251.77 97.2056L252.664 98.9944C255.373 97.64 257.604 95.5772 259.359 92.8397L257.675 91.7603ZM251.76 97.2104C249.468 98.3874 246.634 99 243.217 99V101C246.867 101 250.032 100.346 252.674 98.9896L251.76 97.2104Z" fill="white"/>
<path d="M272.961 61.9H264.861V53.1H272.961V34.4L283.861 32V53.1H294.461V61.9H283.861V99H272.961V61.9Z" fill="#4C9FEB"/>
<path d="M272.961 61.9H273.961V60.9H272.961V61.9ZM264.861 61.9H263.861V62.9H264.861V61.9ZM264.861 53.1V52.1H263.861V53.1H264.861ZM272.961 53.1V54.1H273.961V53.1H272.961ZM272.961 34.4L272.746 33.4234L271.961 33.5962V34.4H272.961ZM283.861 32H284.861V30.7559L283.646 31.0234L283.861 32ZM283.861 53.1H282.861V54.1H283.861V53.1ZM294.461 53.1H295.461V52.1H294.461V53.1ZM294.461 61.9V62.9H295.461V61.9H294.461ZM283.861 61.9V60.9H282.861V61.9H283.861ZM283.861 99V100H284.861V99H283.861ZM272.961 99H271.961V100H272.961V99ZM272.961 60.9H264.861V62.9H272.961V60.9ZM265.861 61.9V53.1H263.861V61.9H265.861ZM264.861 54.1H272.961V52.1H264.861V54.1ZM273.961 53.1V34.4H271.961V53.1H273.961ZM273.176 35.3766L284.076 32.9766L283.646 31.0234L272.746 33.4234L273.176 35.3766ZM282.861 32V53.1H284.861V32H282.861ZM283.861 54.1H294.461V52.1H283.861V54.1ZM293.461 53.1V61.9H295.461V53.1H293.461ZM294.461 60.9H283.861V62.9H294.461V60.9ZM282.861 61.9V99H284.861V61.9H282.861ZM283.861 98H272.961V100H283.861V98ZM273.961 99V61.9H271.961V99H273.961Z" fill="white"/>
<path d="M306.125 82.71C306.965 86.13 308.585 88.68 310.985 90.36C313.445 91.98 316.565 92.79 320.345 92.79C322.865 92.79 325.175 92.4 327.275 91.62C329.375 90.84 331.055 90 332.315 89.1C333.995 90.06 334.835 91.41 334.835 93.15C334.835 94.17 334.445 95.13 333.665 96.03C332.885 96.87 331.805 97.62 330.425 98.28C329.105 98.88 327.515 99.36 325.655 99.72C323.855 100.08 321.905 100.26 319.805 100.26C316.325 100.26 313.145 99.78 310.265 98.82C307.445 97.86 305.015 96.42 302.975 94.5C300.935 92.58 299.345 90.21 298.205 87.39C297.125 84.57 296.585 81.3 296.585 77.58C296.585 73.98 297.125 70.83 298.205 68.13C299.285 65.37 300.755 63.09 302.615 61.29C304.475 59.43 306.665 58.02 309.185 57.06C311.705 56.1 314.405 55.62 317.285 55.62C320.165 55.62 322.775 56.1 325.115 57.06C327.515 57.96 329.555 59.25 331.235 60.93C332.975 62.55 334.295 64.5 335.195 66.78C336.155 69.06 336.635 71.55 336.635 74.25C336.635 75.75 336.275 76.86 335.555 77.58C334.835 78.24 333.785 78.69 332.405 78.93L306.125 82.71ZM317.285 62.91C313.985 62.91 311.225 64.02 309.005 66.24C306.845 68.46 305.705 71.64 305.585 75.78L327.725 72.63C327.485 69.93 326.495 67.65 324.755 65.79C323.015 63.87 320.525 62.91 317.285 62.91ZM346.202 90.45C347.942 88.23 349.712 86.07 351.512 83.97C353.312 81.81 355.082 79.65 356.822 77.49C354.542 74.61 352.322 71.85 350.162 69.21C348.062 66.57 345.872 63.87 343.592 61.11C343.892 59.61 344.462 58.41 345.302 57.51C346.202 56.61 347.312 56.16 348.632 56.16C349.892 56.16 350.882 56.49 351.602 57.15C352.322 57.81 353.102 58.68 353.942 59.76C355.322 61.62 356.732 63.6 358.172 65.7C359.672 67.74 361.202 69.78 362.762 71.82C364.802 69.18 366.752 66.66 368.612 64.26C370.472 61.8 372.392 59.13 374.372 56.25C374.672 56.19 375.062 56.16 375.542 56.16C377.222 56.16 378.542 56.55 379.502 57.33C380.462 58.11 380.942 59.1 380.942 60.3C380.942 61.2 380.732 62.04 380.312 62.82C379.952 63.54 379.292 64.5 378.332 65.7C376.712 67.68 375.032 69.66 373.292 71.64C371.612 73.62 369.962 75.6 368.342 77.58L381.842 94.95C381.662 96.39 381.122 97.53 380.222 98.37C379.322 99.21 378.182 99.63 376.802 99.63C375.482 99.63 374.402 99.27 373.562 98.55C372.782 97.83 371.882 96.84 370.862 95.58C369.482 93.66 368.042 91.68 366.542 89.64C365.102 87.54 363.692 85.5 362.312 83.52C360.332 86.16 358.352 88.83 356.372 91.53C354.392 94.17 352.472 96.84 350.612 99.54H349.172C347.312 99.54 345.902 99.15 344.942 98.37C344.042 97.59 343.592 96.63 343.592 95.49C343.592 94.71 343.772 93.99 344.132 93.33C344.492 92.61 345.182 91.65 346.202 90.45ZM409.936 100.26C408.016 100.26 406.216 100.05 404.536 99.63C402.856 99.27 401.416 98.79 400.216 98.19V115.11C399.796 115.29 399.196 115.44 398.416 115.56C397.696 115.74 396.886 115.83 395.986 115.83C394.246 115.83 392.956 115.5 392.116 114.84C391.276 114.18 390.856 113.04 390.856 111.42V64.89C390.856 63.57 391.096 62.52 391.576 61.74C392.056 60.9 392.956 60.09 394.276 59.31C395.956 58.35 397.996 57.51 400.396 56.79C402.856 56.01 405.616 55.62 408.676 55.62C411.796 55.62 414.706 56.07 417.406 56.97C420.106 57.81 422.446 59.13 424.426 60.93C426.406 62.73 427.966 65.04 429.106 67.86C430.246 70.62 430.816 73.92 430.816 77.76C430.816 81.54 430.276 84.84 429.196 87.66C428.176 90.42 426.736 92.76 424.876 94.68C423.076 96.54 420.886 97.95 418.306 98.91C415.786 99.81 412.996 100.26 409.936 100.26ZM408.496 92.61C412.396 92.61 415.486 91.44 417.766 89.1C420.046 86.7 421.186 82.92 421.186 77.76C421.186 75.12 420.856 72.87 420.196 71.01C419.536 69.15 418.636 67.65 417.496 66.51C416.416 65.31 415.096 64.47 413.536 63.99C412.036 63.45 410.416 63.18 408.676 63.18C406.756 63.18 405.106 63.42 403.726 63.9C402.406 64.32 401.236 64.83 400.216 65.43V90.18C401.236 90.9 402.436 91.5 403.816 91.98C405.196 92.4 406.756 92.61 408.496 92.61ZM448.244 82.71C449.084 86.13 450.704 88.68 453.104 90.36C455.564 91.98 458.684 92.79 462.464 92.79C464.984 92.79 467.294 92.4 469.394 91.62C471.494 90.84 473.174 90 474.434 89.1C476.114 90.06 476.954 91.41 476.954 93.15C476.954 94.17 476.564 95.13 475.784 96.03C475.004 96.87 473.924 97.62 472.544 98.28C471.224 98.88 469.634 99.36 467.774 99.72C465.974 100.08 464.024 100.26 461.924 100.26C458.444 100.26 455.264 99.78 452.384 98.82C449.564 97.86 447.134 96.42 445.094 94.5C443.054 92.58 441.464 90.21 440.324 87.39C439.244 84.57 438.704 81.3 438.704 77.58C438.704 73.98 439.244 70.83 440.324 68.13C441.404 65.37 442.874 63.09 444.734 61.29C446.594 59.43 448.784 58.02 451.304 57.06C453.824 56.1 456.524 55.62 459.404 55.62C462.284 55.62 464.894 56.1 467.234 57.06C469.634 57.96 471.674 59.25 473.354 60.93C475.094 62.55 476.414 64.5 477.314 66.78C478.274 69.06 478.754 71.55 478.754 74.25C478.754 75.75 478.394 76.86 477.674 77.58C476.954 78.24 475.904 78.69 474.524 78.93L448.244 82.71ZM459.404 62.91C456.104 62.91 453.344 64.02 451.124 66.24C448.964 68.46 447.824 71.64 447.704 75.78L469.844 72.63C469.604 69.93 468.614 67.65 466.874 65.79C465.134 63.87 462.644 62.91 459.404 62.91ZM497.775 98.82C497.355 99 496.755 99.15 495.975 99.27C495.255 99.45 494.445 99.54 493.545 99.54C491.805 99.54 490.515 99.21 489.675 98.55C488.835 97.89 488.415 96.78 488.415 95.22V65.7C488.415 64.2 488.715 63 489.315 62.1C489.915 61.14 490.875 60.24 492.195 59.4C493.935 58.32 496.155 57.42 498.855 56.7C501.555 55.98 504.525 55.62 507.765 55.62C513.045 55.62 515.685 57.12 515.685 60.12C515.685 60.84 515.565 61.53 515.325 62.19C515.085 62.79 514.815 63.33 514.515 63.81C513.915 63.69 513.165 63.57 512.265 63.45C511.365 63.33 510.405 63.27 509.385 63.27C506.985 63.27 504.795 63.54 502.815 64.08C500.835 64.56 499.155 65.19 497.775 65.97V98.82ZM532.933 86.67C532.933 88.83 533.563 90.36 534.823 91.26C536.083 92.16 537.853 92.61 540.133 92.61C541.153 92.61 542.233 92.46 543.373 92.16C544.513 91.86 545.503 91.5 546.343 91.08C546.763 91.56 547.123 92.1 547.423 92.7C547.783 93.3 547.963 94.02 547.963 94.86C547.963 96.42 547.153 97.71 545.533 98.73C543.973 99.75 541.573 100.26 538.333 100.26C533.833 100.26 530.233 99.27 527.533 97.29C524.893 95.25 523.573 91.92 523.573 87.3V45.27C523.993 45.15 524.593 45 525.373 44.82C526.153 44.64 526.993 44.55 527.893 44.55C529.633 44.55 530.893 44.88 531.673 45.54C532.513 46.2 532.933 47.31 532.933 48.87V57.78H546.883C547.123 58.14 547.333 58.65 547.513 59.31C547.753 59.97 547.873 60.66 547.873 61.38C547.873 63.96 546.763 65.25 544.543 65.25H532.933V86.67Z" fill="#173C73"/>
</g>
<defs>
<clipPath id="clip0">
<rect width="601" height="140" fill="white"/>
</clipPath>
</defs>
</svg>
