<?xml version="1.0" encoding="iso-8859-1"?>
<!-- Generator: Adobe Illustrator 19.0.0, SVG Export Plug-In . SVG Version: 6.00 Build 0)  -->
<svg version="1.1" id="Capa_1" xmlns="http://www.w3.org/2000/svg" xmlns:xlink="http://www.w3.org/1999/xlink" x="0px" y="0px"
	 viewBox="0 0 512.001 512.001" style="enable-background:new 0 0 512.001 512.001;" xml:space="preserve">
<g>
	<path style="fill:#579ADD;" d="M246.984,38.837c90.512-14.778,170.665-25.922,260.897-38.804c1.957-0.28,3.717,1.238,3.717,3.214
		l0,0v236.437c0,1.792-1.448,3.244-3.24,3.245c-89.633,0.043-181.009,1.828-270.641,1.871c-1.796,0.001-3.249-1.457-3.249-3.252
		V59.84V43.499c0-1.609,1.179-2.976,2.771-3.213L246.984,38.837z"/>
	<path style="fill:#579ADD;" d="M13.612,70.411L206.45,44.928c1.946-0.258,3.674,1.257,3.674,3.22v193.409
		c0,1.792-1.456,3.243-3.247,3.244c-68.903,0.054-136.075,1.814-203.219,1.87c-1.797,0.001-3.255-1.458-3.255-3.254V84.979V75.3
		c0-1.595,1.158-2.954,2.734-3.207L13.612,70.411z"/>
	<path style="fill:#579ADD;" d="M3.659,267.272c67.117,0.056,134.262,1.785,203.138,0.084c1.823-0.045,3.328,1.417,3.328,3.241
		v195.2c0,1.963-1.733,3.477-3.679,3.221c-68.903-9.075-136.078-18.148-203.229-27.223c-1.611-0.218-2.813-1.594-2.813-3.219
		v-168.05C0.404,268.73,1.862,267.271,3.659,267.272z"/>
	<path style="fill:#579ADD;" d="M246.984,269.144h261.365c1.794,0,3.249,1.455,3.249,3.249v228.942v7.422
		c0,2-1.787,3.52-3.761,3.201c-89.619-14.525-180.973-25.554-270.579-38.313c-1.602-0.228-2.791-1.601-2.791-3.22V272.392
		c0-1.794,1.455-3.249,3.249-3.249L246.984,269.144L246.984,269.144z"/>
</g>
<g>
	<path style="fill:#4987CE;" d="M255.039,241.485V56.25V39.592c0-0.84,0.318-1.612,0.844-2.202c-2.955,0.478-5.921,0.96-8.898,1.447
		l-9.747,1.449c-1.592,0.237-2.771,1.603-2.771,3.213v16.34v181.709c0,1.796,1.454,3.253,3.249,3.252
		c6.683-0.003,13.394-0.033,20.096-0.054C256.24,244.487,255.039,243.131,255.039,241.485z"/>
	<path style="fill:#4987CE;" d="M20.975,243.344V81.282v-9.901c0-0.764,0.268-1.469,0.709-2.036l-8.072,1.066l-10.474,1.68
		c-1.576,0.253-2.734,1.612-2.734,3.207v9.68v158.438c0,1.797,1.459,3.256,3.255,3.254c6.65-0.006,13.301-0.039,19.953-0.075
		C22.107,246.278,20.975,244.943,20.975,243.344z"/>
	<path style="fill:#4987CE;" d="M208.576,267.842c-0.517-0.318-1.126-0.502-1.78-0.486l0,0L208.576,267.842z"/>
	<path style="fill:#4987CE;" d="M20.975,444.019V270.63c0-1.633,1.168-2.992,2.714-3.293c-6.678-0.034-13.355-0.059-20.031-0.065
		c-1.796-0.002-3.255,1.457-3.255,3.254v168.049c0,1.626,1.202,3.001,2.814,3.219c5.924,0.801,11.85,1.601,17.776,2.401
		C20.988,444.136,20.975,444.08,20.975,444.019z"/>
	<path style="fill:#4987CE;" d="M255.039,474.705V272.461c0-1.832,1.486-3.318,3.318-3.318h-11.372h-9.269
		c-1.794,0-3.248,1.455-3.248,3.248v198.033c0,1.618,1.188,2.991,2.791,3.22c6.042,0.861,12.094,1.712,18.151,2.558
		C255.178,475.749,255.039,475.243,255.039,474.705z"/>
</g>
<g>
</g>
<g>
</g>
<g>
</g>
<g>
</g>
<g>
</g>
<g>
</g>
<g>
</g>
<g>
</g>
<g>
</g>
<g>
</g>
<g>
</g>
<g>
</g>
<g>
</g>
<g>
</g>
<g>
</g>
</svg>
