<svg width="601" height="140" viewBox="0 0 601 140" fill="none" xmlns="http://www.w3.org/2000/svg">
<g clip-path="url(#clip0)">
<path d="M59.2926 100C56.0926 100 52.7592 99.6 49.2926 98.8C45.8926 97.9333 43.4592 96.9333 41.9926 95.8L45.5926 87.3C49.5926 90.1 54.1592 91.5 59.2926 91.5C64.4259 91.5 66.9926 90 66.9926 87C66.9926 85.6667 66.4592 84.6333 65.3926 83.9C64.3259 83.1667 62.4259 82.3 59.6926 81.3L55.8926 79.9C51.8926 78.3 48.7259 76.4 46.3926 74.2C44.0592 71.9333 42.8926 68.9667 42.8926 65.3C42.8926 61.1 44.5259 57.8333 47.7926 55.5C51.1259 53.1 55.5592 51.9 61.0926 51.9C63.8259 51.9 66.4926 52.2 69.0926 52.8C71.7592 53.4 73.7926 54.1667 75.1926 55.1L71.2926 63.7C70.4259 62.8333 69.0259 62.1 67.0926 61.5C65.2259 60.8333 63.1259 60.5 60.7926 60.5C56.0592 60.5 53.6926 61.9333 53.6926 64.8C53.6926 66.4 54.3259 67.6333 55.5926 68.5C56.8592 69.3 58.9259 70.2 61.7926 71.2C62.0592 71.2667 63.0926 71.6333 64.8926 72.3C69.1592 73.9667 72.3259 75.8667 74.3926 78C76.4592 80.1333 77.4926 82.8667 77.4926 86.2C77.4926 90.7333 75.7592 94.1667 72.2926 96.5C68.8926 98.8333 64.5592 100 59.2926 100Z" fill="#4C9FEB"/>
<path d="M49.2926 98.8L49.0456 99.769L49.0566 99.7718L49.0677 99.7744L49.2926 98.8ZM41.9926 95.8L41.0718 95.41L40.7711 96.1199L41.3811 96.5913L41.9926 95.8ZM45.5926 87.3L46.166 86.4808L45.1537 85.7721L44.6718 86.91L45.5926 87.3ZM65.3926 83.9L65.9591 83.076L65.3926 83.9ZM59.6926 81.3L59.3469 82.2383L59.349 82.2391L59.6926 81.3ZM55.8926 79.9L55.5212 80.8285L55.534 80.8336L55.5469 80.8383L55.8926 79.9ZM46.3926 74.2L45.6958 74.9173L45.7011 74.9225L45.7066 74.9276L46.3926 74.2ZM47.7926 55.5L48.3738 56.3137L48.3769 56.3115L47.7926 55.5ZM69.0926 52.8L68.8677 53.7744L68.8731 53.7756L69.0926 52.8ZM75.1926 55.1L76.1033 55.513L76.4542 54.7392L75.7473 54.268L75.1926 55.1ZM71.2926 63.7L70.5855 64.4071L71.6068 65.4284L72.2033 64.113L71.2926 63.7ZM67.0926 61.5L66.7562 62.4417L66.7761 62.4488L66.7962 62.4551L67.0926 61.5ZM55.5926 68.5L55.0279 69.3253L55.0431 69.3357L55.0586 69.3455L55.5926 68.5ZM61.7926 71.2L61.4632 72.1442L61.506 72.1591L61.55 72.1701L61.7926 71.2ZM64.8926 72.3L65.2564 71.3685L65.2482 71.3653L65.2399 71.3623L64.8926 72.3ZM74.3926 78L75.1108 77.3042L74.3926 78ZM72.2926 96.5L71.7342 95.6704L71.7267 95.6755L72.2926 96.5ZM59.2926 99C56.1761 99 52.9185 98.6105 49.5174 97.8256L49.0677 99.7744C52.6 100.59 56.009 101 59.2926 101V99ZM49.5396 97.831C46.1748 96.9733 43.9045 96.0136 42.604 95.0087L41.3811 96.5913C43.014 97.853 45.6104 98.8934 49.0456 99.769L49.5396 97.831ZM42.9134 96.19L46.5134 87.69L44.6718 86.91L41.0718 95.41L42.9134 96.19ZM45.0191 88.1192C49.1961 91.0431 53.9652 92.5 59.2926 92.5V90.5C54.3532 90.5 49.989 89.1569 46.166 86.4808L45.0191 88.1192ZM59.2926 92.5C61.9239 92.5 64.0613 92.1213 65.5721 91.2384C67.1658 90.307 67.9926 88.8514 67.9926 87H65.9926C65.9926 88.1486 65.5361 88.943 64.563 89.5116C63.5072 90.1287 61.7946 90.5 59.2926 90.5V92.5ZM67.9926 87C67.9926 85.3492 67.3067 84.0024 65.9591 83.076L64.826 84.724C65.6118 85.2642 65.9926 85.9841 65.9926 87H67.9926ZM65.9591 83.076C64.7798 82.2652 62.7753 81.363 60.0362 80.3609L59.349 82.2391C62.0765 83.237 63.872 84.0681 64.8261 84.724L65.9591 83.076ZM60.0383 80.3617L56.2383 78.9617L55.5469 80.8383L59.3469 82.2383L60.0383 80.3617ZM56.264 78.9715C52.3429 77.4031 49.2951 75.5623 47.0786 73.4724L45.7066 74.9276C48.1567 77.2377 51.4423 79.1969 55.5212 80.8285L56.264 78.9715ZM47.0894 73.4827C44.9753 71.4291 43.8926 68.7341 43.8926 65.3H41.8926C41.8926 69.1992 43.1432 72.4376 45.6958 74.9173L47.0894 73.4827ZM43.8926 65.3C43.8926 61.4053 45.384 58.4493 48.3738 56.3137L47.2113 54.6863C43.6679 57.2173 41.8926 60.7947 41.8926 65.3H43.8926ZM48.3769 56.3115C51.4899 54.0702 55.6973 52.9 61.0926 52.9V50.9C55.4212 50.9 50.762 52.1298 47.2083 54.6885L48.3769 56.3115ZM61.0926 52.9C63.7521 52.9 66.3432 53.1918 68.8677 53.7744L69.3174 51.8256C66.6419 51.2082 63.8997 50.9 61.0926 50.9V52.9ZM68.8731 53.7756C71.4854 54.3634 73.3837 55.0959 74.6379 55.9321L75.7473 54.268C74.2015 53.2374 72.0331 52.4366 69.3121 51.8244L68.8731 53.7756ZM74.2818 54.687L70.3819 63.287L72.2033 64.113L76.1033 55.513L74.2818 54.687ZM71.9997 62.9929C70.9666 61.9598 69.388 61.1653 67.389 60.5449L66.7962 62.4551C68.6638 63.0347 69.8852 63.7068 70.5855 64.4071L71.9997 62.9929ZM67.4289 60.5583C65.4371 59.8469 63.2207 59.5 60.7926 59.5V61.5C63.0311 61.5 65.0148 61.8198 66.7562 62.4417L67.4289 60.5583ZM60.7926 59.5C58.3576 59.5 56.3642 59.8629 54.9495 60.7196C53.4541 61.6254 52.6926 63.0323 52.6926 64.8H54.6926C54.6926 63.701 55.1144 62.958 55.9856 62.4304C56.9376 61.8538 58.4943 61.5 60.7926 61.5V59.5ZM52.6926 64.8C52.6926 66.7134 53.4753 68.263 55.0279 69.3253L56.1573 67.6747C55.1765 67.0037 54.6926 66.0866 54.6926 64.8H52.6926ZM55.0586 69.3455C56.426 70.2091 58.5822 71.1392 61.4632 72.1442L62.122 70.2558C59.2696 69.2608 57.2925 68.3909 56.1266 67.6545L55.0586 69.3455ZM61.55 72.1701C61.7479 72.2196 62.7088 72.5576 64.5453 73.2377L65.2399 71.3623C63.4764 70.7091 62.3706 70.3137 62.0351 70.2299L61.55 72.1701ZM64.5287 73.2315C68.727 74.8714 71.7469 76.7062 73.6743 78.6958L75.1108 77.3042C72.9049 75.0272 69.5915 73.0619 65.2564 71.3685L64.5287 73.2315ZM73.6743 78.6958C75.5376 80.6192 76.4926 83.0919 76.4926 86.2H78.4926C78.4926 82.6415 77.3809 79.6475 75.1108 77.3042L73.6743 78.6958ZM76.4926 86.2C76.4926 90.4339 74.8982 93.5408 71.7342 95.6704L72.851 97.3296C76.6203 94.7925 78.4926 91.0327 78.4926 86.2H76.4926ZM71.7267 95.6755C68.5341 97.8665 64.4131 99 59.2926 99V101C64.7054 101 69.2511 99.8001 72.8584 97.3245L71.7267 95.6755Z" fill="white"/>
<path d="M73.8402 25.5H84.3402V53.1L83.9402 61.6C85.2069 58.8 87.2402 56.5 90.0402 54.7C92.8402 52.8333 96.1069 51.9 99.8402 51.9C104.574 51.9 108.207 52.9 110.74 54.9C113.274 56.8333 114.974 59.5667 115.84 63.1C116.707 66.6333 117.14 71.2333 117.14 76.9V99H106.44V76.8C106.44 72.9333 106.207 69.9 105.74 67.7C105.34 65.5 104.474 63.8333 103.14 62.7C101.874 61.5667 100.007 61 97.5402 61C95.5402 61 93.5069 61.6 91.4402 62.8C89.4402 64 87.7736 65.7667 86.4402 68.1C85.1069 70.3667 84.4402 73.0667 84.4402 76.2V99H73.8402V25.5Z" fill="#4C9FEB"/>
<path d="M73.8402 25.5V24.5H72.8402V25.5H73.8402ZM84.3402 25.5H85.3402V24.5H84.3402V25.5ZM84.3402 53.1L85.3391 53.147L85.3402 53.1235V53.1H84.3402ZM83.9402 61.6L82.9413 61.553L84.8513 62.0122L83.9402 61.6ZM90.0402 54.7L90.581 55.5412L90.588 55.5367L90.5949 55.5321L90.0402 54.7ZM110.74 54.9L110.121 55.6849L110.127 55.69L110.134 55.6949L110.74 54.9ZM115.84 63.1L116.811 62.8618L115.84 63.1ZM117.14 99V100H118.14V99H117.14ZM106.44 99H105.44V100H106.44V99ZM105.74 67.7L104.756 67.8789L104.759 67.8932L104.762 67.9075L105.74 67.7ZM103.14 62.7L102.473 63.4452L102.483 63.4537L102.493 63.4619L103.14 62.7ZM91.4402 62.8L90.9381 61.9352L90.9319 61.9388L90.9257 61.9425L91.4402 62.8ZM86.4402 68.1L87.3022 68.6071L87.3085 68.5961L86.4402 68.1ZM84.4402 99V100H85.4402V99H84.4402ZM73.8402 99H72.8402V100H73.8402V99ZM73.8402 26.5H84.3402V24.5H73.8402V26.5ZM83.3402 25.5V53.1H85.3402V25.5H83.3402ZM83.3413 53.053L82.9413 61.553L84.9391 61.647L85.3391 53.147L83.3413 53.053ZM84.8513 62.0122C86.0319 59.4025 87.9292 57.2459 90.581 55.5412L89.4995 53.8588C86.5513 55.7541 84.3819 58.1975 83.0291 61.1878L84.8513 62.0122ZM90.5949 55.5321C93.2129 53.7867 96.2819 52.9 99.8402 52.9V50.9C95.9319 50.9 92.4675 51.88 89.4855 53.868L90.5949 55.5321ZM99.8402 52.9C104.45 52.9 107.829 53.8761 110.121 55.6849L111.36 54.1151C108.584 51.9239 104.697 50.9 99.8402 50.9V52.9ZM110.134 55.6949C112.46 57.4704 114.049 59.9935 114.869 63.3382L116.811 62.8618C115.899 59.1398 114.087 56.1962 111.347 54.105L110.134 55.6949ZM114.869 63.3382C115.709 66.763 116.14 71.2744 116.14 76.9H118.14C118.14 71.1923 117.705 66.5037 116.811 62.8618L114.869 63.3382ZM116.14 76.9V99H118.14V76.9H116.14ZM117.14 98H106.44V100H117.14V98ZM107.44 99V76.8H105.44V99H107.44ZM107.44 76.8C107.44 72.9057 107.206 69.7923 106.718 67.4925L104.762 67.9075C105.208 70.0077 105.44 72.961 105.44 76.8H107.44ZM106.724 67.5211C106.294 65.1581 105.341 63.2586 103.788 61.9381L102.493 63.4619C103.606 64.4081 104.386 65.8419 104.756 67.8789L106.724 67.5211ZM103.807 61.9548C102.289 60.5967 100.144 60 97.5402 60V62C99.8702 62 101.458 62.5366 102.473 63.4452L103.807 61.9548ZM97.5402 60C95.3323 60 93.1275 60.664 90.9381 61.9352L91.9424 63.6648C93.8863 62.536 95.7481 62 97.5402 62V60ZM90.9257 61.9425C88.7577 63.2433 86.9773 65.1447 85.572 67.6039L87.3085 68.5961C88.5699 66.3887 90.1227 64.7567 91.9547 63.6575L90.9257 61.9425ZM85.5783 67.593C84.1386 70.0404 83.4402 72.9227 83.4402 76.2H85.4402C85.4402 73.2106 86.0752 70.6929 87.3022 68.607L85.5783 67.593ZM83.4402 76.2V99H85.4402V76.2H83.4402ZM84.4402 98H73.8402V100H84.4402V98ZM74.8402 99V25.5H72.8402V99H74.8402Z" fill="white"/>
<path d="M138.033 100C133.3 100 129.1 98.9333 125.433 96.8C121.767 94.6667 118.933 91.7667 116.933 88.1C114.933 84.4333 113.933 80.3667 113.933 75.9C113.933 71.5 114.9 67.4667 116.833 63.8C118.833 60.1333 121.667 57.2333 125.333 55.1C129 52.9667 133.233 51.9 138.033 51.9C142.833 51.9 147.033 52.9667 150.633 55.1C154.3 57.2333 157.1 60.1333 159.033 63.8C161.033 67.4667 162.033 71.5 162.033 75.9C162.033 80.3667 161.033 84.4333 159.033 88.1C157.033 91.7667 154.2 94.6667 150.533 96.8C146.933 98.9333 142.767 100 138.033 100ZM138.333 91.2C142.2 91.2 145.233 89.7667 147.433 86.9C149.7 84.0333 150.833 80.4333 150.833 76.1C150.833 71.7667 149.633 68.1333 147.233 65.2C144.833 62.2 141.667 60.7 137.733 60.7C133.933 60.7 130.867 62.1667 128.533 65.1C126.267 68.0333 125.133 71.7 125.133 76.1C125.133 80.3667 126.367 83.9667 128.833 86.9C131.3 89.7667 134.467 91.2 138.333 91.2Z" fill="#4C9FEB"/>
<path d="M125.433 96.8L125.936 95.9357L125.433 96.8ZM116.933 88.1L116.055 88.5788L116.933 88.1ZM116.833 63.8L115.955 63.3211L115.949 63.3336L116.833 63.8ZM125.333 55.1L124.83 54.2356L125.333 55.1ZM150.633 55.1L150.123 55.9603L150.13 55.9643L150.633 55.1ZM159.033 63.8L158.149 64.2665L158.155 64.2788L159.033 63.8ZM159.033 88.1L158.155 87.6211L159.033 88.1ZM150.533 96.8L150.03 95.9356L150.023 95.9397L150.533 96.8ZM147.433 86.9L146.649 86.2798L146.644 86.2854L146.64 86.2912L147.433 86.9ZM147.233 65.2L146.452 65.8247L146.459 65.8332L147.233 65.2ZM128.533 65.1L127.751 64.4774L127.742 64.4885L128.533 65.1ZM128.833 86.9L128.068 87.5436L128.075 87.5522L128.833 86.9ZM138.033 99C133.456 99 129.433 97.9702 125.936 95.9357L124.93 97.6643C128.767 99.8965 133.144 101 138.033 101V99ZM125.936 95.9357C122.425 93.8926 119.722 91.1249 117.811 87.6211L116.055 88.5788C118.144 92.4085 121.108 95.4407 124.93 97.6643L125.936 95.9357ZM117.811 87.6211C115.897 84.1115 114.933 80.2113 114.933 75.9H112.933C112.933 80.522 113.97 84.7551 116.055 88.5788L117.811 87.6211ZM114.933 75.9C114.933 71.6523 115.865 67.7805 117.718 64.2664L115.949 63.3336C113.935 67.1529 112.933 71.3477 112.933 75.9H114.933ZM117.711 64.2788C119.622 60.7751 122.325 58.0074 125.836 55.9643L124.83 54.2356C121.008 56.4593 118.044 59.4915 115.955 63.3211L117.711 64.2788ZM125.836 55.9643C129.331 53.9311 133.386 52.9 138.033 52.9V50.9C133.08 50.9 128.669 52.0023 124.83 54.2356L125.836 55.9643ZM138.033 52.9C142.681 52.9 146.699 53.9312 150.123 55.9603L151.143 54.2397C147.367 52.0021 142.986 50.9 138.033 50.9V52.9ZM150.13 55.9643C153.639 58.0058 156.305 60.7696 158.149 64.2664L159.918 63.3336C157.895 59.4971 154.961 56.4609 151.136 54.2356L150.13 55.9643ZM158.155 64.2788C160.071 67.7907 161.033 71.6581 161.033 75.9H163.033C163.033 71.3419 161.996 67.1426 159.911 63.3211L158.155 64.2788ZM161.033 75.9C161.033 80.2113 160.07 84.1115 158.155 87.6211L159.911 88.5788C161.997 84.7551 163.033 80.522 163.033 75.9H161.033ZM158.155 87.6211C156.244 91.1249 153.542 93.8926 150.03 95.9357L151.036 97.6643C154.858 95.4407 157.822 92.4085 159.911 88.5788L158.155 87.6211ZM150.023 95.9397C146.597 97.9701 142.611 99 138.033 99V101C142.922 101 147.269 99.8966 151.043 97.6603L150.023 95.9397ZM138.333 92.2C142.486 92.2 145.822 90.6414 148.227 87.5088L146.64 86.2912C144.644 88.8919 141.914 90.2 138.333 90.2V92.2ZM148.218 87.5202C150.649 84.4457 151.833 80.615 151.833 76.1H149.833C149.833 80.2517 148.751 83.621 146.649 86.2798L148.218 87.5202ZM151.833 76.1C151.833 71.5707 150.574 67.704 148.007 64.5668L146.459 65.8332C148.692 68.5626 149.833 71.9626 149.833 76.1H151.833ZM148.014 64.5753C145.419 61.3316 141.962 59.7 137.733 59.7V61.7C141.371 61.7 144.247 63.0684 146.452 65.8247L148.014 64.5753ZM137.733 59.7C133.633 59.7 130.277 61.3018 127.751 64.4775L129.316 65.7225C131.456 63.0315 134.233 61.7 137.733 61.7V59.7ZM127.742 64.4885C125.316 67.6281 124.133 71.5215 124.133 76.1H126.133C126.133 71.8784 127.217 68.4385 129.324 65.7114L127.742 64.4885ZM124.133 76.1C124.133 80.5737 125.432 84.4094 128.068 87.5436L129.599 86.2564C127.301 83.5239 126.133 80.1597 126.133 76.1H124.133ZM128.075 87.5522C130.737 90.6453 134.183 92.2 138.333 92.2V90.2C134.75 90.2 131.863 88.888 129.591 86.2478L128.075 87.5522Z" fill="white"/>
<path d="M158.831 53.1H169.631V62.1C170.698 59.0333 172.431 56.5667 174.831 54.7C177.231 52.8333 179.965 51.9 183.031 51.9C185.165 51.9 186.631 52.1 187.431 52.5L185.931 63.4C185.331 63 184.031 62.8 182.031 62.8C178.898 62.8 176.031 63.8 173.431 65.8C170.898 67.8 169.631 71 169.631 75.4V99H158.831V53.1Z" fill="#4C9FEB"/>
<path d="M158.831 53.1V52.1H157.831V53.1H158.831ZM169.631 53.1H170.631V52.1H169.631V53.1ZM169.631 62.1H168.631L170.576 62.4285L169.631 62.1ZM174.831 54.7L175.445 55.4893L174.831 54.7ZM187.431 52.5L188.422 52.6363L188.52 51.9262L187.878 51.6056L187.431 52.5ZM185.931 63.4L185.377 64.232L186.704 65.1173L186.922 63.5363L185.931 63.4ZM173.431 65.8L172.821 65.0073L172.812 65.0151L173.431 65.8ZM169.631 99V100H170.631V99H169.631ZM158.831 99H157.831V100H158.831V99ZM158.831 54.1H169.631V52.1H158.831V54.1ZM168.631 53.1V62.1H170.631V53.1H168.631ZM170.576 62.4285C171.584 59.5312 173.208 57.2294 175.445 55.4893L174.217 53.9106C171.654 55.904 169.812 58.5355 168.687 61.7715L170.576 62.4285ZM175.445 55.4893C177.668 53.7605 180.185 52.9 183.031 52.9V50.9C179.744 50.9 176.794 51.9062 174.217 53.9106L175.445 55.4893ZM183.031 52.9C185.168 52.9 186.417 53.1107 186.984 53.3944L187.878 51.6056C186.846 51.0893 185.161 50.9 183.031 50.9V52.9ZM186.441 52.3637L184.941 63.2637L186.922 63.5363L188.422 52.6363L186.441 52.3637ZM186.486 62.5679C186.002 62.2455 185.353 62.0685 184.658 61.9616C183.939 61.851 183.059 61.8 182.031 61.8V63.8C183.004 63.8 183.773 63.849 184.354 63.9384C184.96 64.0315 185.26 64.1545 185.377 64.232L186.486 62.5679ZM182.031 61.8C178.667 61.8 175.588 62.8797 172.822 65.0074L174.041 66.5926C176.475 64.7203 179.129 63.8 182.031 63.8V61.8ZM172.812 65.0151C169.958 67.2677 168.631 70.8124 168.631 75.4H170.631C170.631 71.1875 171.838 68.3323 174.051 66.5849L172.812 65.0151ZM168.631 75.4V99H170.631V75.4H168.631ZM169.631 98H158.831V100H169.631V98ZM159.831 99V53.1H157.831V99H159.831Z" fill="white"/>
<path d="M186.961 61.9H178.861V53.1H186.961V34.4L197.861 32V53.1H208.461V61.9H197.861V99H186.961V61.9Z" fill="#4C9FEB"/>
<path d="M186.961 61.9H187.961V60.9H186.961V61.9ZM178.861 61.9H177.861V62.9H178.861V61.9ZM178.861 53.1V52.1H177.861V53.1H178.861ZM186.961 53.1V54.1H187.961V53.1H186.961ZM186.961 34.4L186.746 33.4234L185.961 33.5962V34.4H186.961ZM197.861 32H198.861V30.7559L197.646 31.0234L197.861 32ZM197.861 53.1H196.861V54.1H197.861V53.1ZM208.461 53.1H209.461V52.1H208.461V53.1ZM208.461 61.9V62.9H209.461V61.9H208.461ZM197.861 61.9V60.9H196.861V61.9H197.861ZM197.861 99V100H198.861V99H197.861ZM186.961 99H185.961V100H186.961V99ZM186.961 60.9H178.861V62.9H186.961V60.9ZM179.861 61.9V53.1H177.861V61.9H179.861ZM178.861 54.1H186.961V52.1H178.861V54.1ZM187.961 53.1V34.4H185.961V53.1H187.961ZM187.176 35.3766L198.076 32.9766L197.646 31.0234L186.746 33.4234L187.176 35.3766ZM196.861 32V53.1H198.861V32H196.861ZM197.861 54.1H208.461V52.1H197.861V54.1ZM207.461 53.1V61.9H209.461V53.1H207.461ZM208.461 60.9H197.861V62.9H208.461V60.9ZM196.861 61.9V99H198.861V61.9H196.861ZM197.861 98H186.961V100H197.861V98ZM187.961 99V61.9H185.961V99H187.961Z" fill="white"/>
<path d="M224.209 100C219.676 100 215.576 99.0333 211.909 97.1C208.309 95.1 205.442 92.2667 203.309 88.6C201.176 84.8667 200.109 80.5 200.109 75.5C200.109 70.7667 201.076 66.6333 203.009 63.1C205.009 59.5 207.776 56.7333 211.309 54.8C214.909 52.8667 219.042 51.9 223.709 51.9C227.242 51.9 230.276 52.3667 232.809 53.3C235.409 54.1667 237.442 55.2667 238.909 56.6L234.109 65.3C231.309 62.5 228.142 61.1 224.609 61.1C220.342 61.1 217.076 62.4 214.809 65C212.609 67.6 211.509 71.0667 211.509 75.4C211.509 80.3333 212.642 84.1667 214.909 86.9C217.242 89.6333 220.476 91 224.609 91C226.676 91 228.676 90.7 230.609 90.1C232.609 89.5 234.142 88.8 235.209 88L239.109 95.6C237.642 96.7333 235.576 97.7667 232.909 98.7C230.309 99.5667 227.409 100 224.209 100Z" fill="#4C9FEB"/>
<path d="M211.909 97.1L211.423 97.9742L211.433 97.9795L211.443 97.9846L211.909 97.1ZM203.309 88.6L202.441 89.0962L202.445 89.1029L203.309 88.6ZM203.009 63.1L202.135 62.6143L202.132 62.62L203.009 63.1ZM211.309 54.8L210.836 53.919L210.829 53.9227L211.309 54.8ZM232.809 53.3L232.463 54.2383L232.478 54.2437L232.493 54.2487L232.809 53.3ZM238.909 56.6L239.785 57.0831L240.166 56.3914L239.582 55.8601L238.909 56.6ZM234.109 65.3L233.402 66.0071L234.342 66.9474L234.985 65.7831L234.109 65.3ZM214.809 65L214.055 64.3429L214.05 64.3484L214.046 64.3541L214.809 65ZM214.909 86.9L214.139 87.5383L214.144 87.5438L214.148 87.5493L214.909 86.9ZM230.609 90.1L230.322 89.1421L230.313 89.1449L230.609 90.1ZM235.209 88L236.099 87.5434L235.557 86.4887L234.609 87.2L235.209 88ZM239.109 95.6L239.72 96.3913L240.378 95.883L239.999 95.1434L239.109 95.6ZM232.909 98.7L233.225 99.6487L233.232 99.6463L233.239 99.6439L232.909 98.7ZM224.209 99C219.823 99 215.885 98.066 212.375 96.2154L211.443 97.9846C215.266 100.001 219.529 101 224.209 101V99ZM212.395 96.2258C208.957 94.316 206.219 91.6131 204.173 88.0971L202.445 89.1029C204.666 92.9202 207.661 95.884 211.423 97.9742L212.395 96.2258ZM204.177 88.1039C202.143 84.5447 201.109 80.3546 201.109 75.5H199.109C199.109 80.6454 200.208 85.1887 202.441 89.0961L204.177 88.1039ZM201.109 75.5C201.109 70.905 202.046 66.9423 203.886 63.58L202.132 62.62C200.105 66.3244 199.109 70.6284 199.109 75.5H201.109ZM203.883 63.5856C205.794 60.1469 208.425 57.5178 211.789 55.6773L210.829 53.9227C207.126 55.9489 204.224 58.8531 202.135 62.6144L203.883 63.5856ZM211.782 55.681C215.217 53.8363 219.184 52.9 223.709 52.9V50.9C218.901 50.9 214.601 51.8971 210.836 53.919L211.782 55.681ZM223.709 52.9C227.159 52.9 230.069 53.3562 232.463 54.2383L233.155 52.3617C230.482 51.3771 227.326 50.9 223.709 50.9V52.9ZM232.493 54.2487C235.008 55.0871 236.904 56.1288 238.236 57.3399L239.582 55.8601C237.981 54.4045 235.81 53.2462 233.125 52.3513L232.493 54.2487ZM238.033 56.1169L233.233 64.8169L234.985 65.7831L239.785 57.0831L238.033 56.1169ZM234.816 64.5929C231.853 61.6301 228.441 60.1 224.609 60.1V62.1C227.844 62.1 230.765 63.3699 233.402 66.0071L234.816 64.5929ZM224.609 60.1C220.128 60.1 216.556 61.4747 214.055 64.3429L215.563 65.6571C217.596 63.3253 220.557 62.1 224.609 62.1V60.1ZM214.046 64.3541C211.655 67.1793 210.509 70.8961 210.509 75.4H212.509C212.509 71.2372 213.563 68.0207 215.572 65.6459L214.046 64.3541ZM210.509 75.4C210.509 80.4765 211.675 84.5668 214.139 87.5383L215.679 86.2617C213.61 83.7666 212.509 80.1902 212.509 75.4H210.509ZM214.148 87.5493C216.701 90.5398 220.232 92 224.609 92V90C220.719 90 217.783 88.7268 215.67 86.2507L214.148 87.5493ZM224.609 92C226.774 92 228.874 91.6855 230.905 91.0551L230.313 89.1449C228.477 89.7145 226.577 90 224.609 90V92ZM230.896 91.0578C232.953 90.441 234.61 89.6989 235.809 88.8L234.609 87.2C233.674 87.9011 232.265 88.559 230.322 89.1422L230.896 91.0578ZM234.319 88.4566L238.219 96.0566L239.999 95.1434L236.099 87.5434L234.319 88.4566ZM238.498 94.8087C237.148 95.8515 235.191 96.8417 232.579 97.7561L233.239 99.6439C235.96 98.6916 238.137 97.6151 239.72 96.3913L238.498 94.8087ZM232.593 97.7513C230.11 98.5788 227.319 99 224.209 99V101C227.499 101 230.508 100.554 233.225 99.6487L232.593 97.7513Z" fill="white"/>
<path d="M251.217 100C244.883 100 240.517 98.1333 238.117 94.4C235.783 90.6667 234.617 85.4667 234.617 78.8V53.1H245.417V76.1C245.417 79.9 245.617 82.8667 246.017 85C246.483 87.0667 247.35 88.6 248.617 89.6C249.95 90.6 251.917 91.1 254.517 91.1C256.383 91.1 258.183 90.5667 259.917 89.5C261.65 88.4333 263.05 87 264.117 85.2C265.25 83.3333 265.817 81.3 265.817 79.1V53.1H276.517V99H267.717L266.517 92.3C264.85 94.9 262.75 96.8333 260.217 98.1C257.75 99.3667 254.75 100 251.217 100Z" fill="#4C9FEB"/>
<path d="M238.117 94.4L237.269 94.93L237.276 94.9408L238.117 94.4ZM234.617 53.1V52.1H233.617V53.1H234.617ZM245.417 53.1H246.417V52.1H245.417V53.1ZM246.017 85L245.034 85.1843L245.037 85.2023L245.041 85.2203L246.017 85ZM248.617 89.6L247.997 90.3849L248.007 90.3926L248.017 90.4L248.617 89.6ZM259.917 89.5L259.393 88.6483L259.917 89.5ZM264.117 85.2L263.262 84.681L263.257 84.6902L264.117 85.2ZM265.817 53.1V52.1H264.817V53.1H265.817ZM276.517 53.1H277.517V52.1H276.517V53.1ZM276.517 99V100H277.517V99H276.517ZM267.717 99L266.732 99.1763L266.88 100H267.717V99ZM266.517 92.3L267.501 92.1237L267.051 89.6129L265.675 91.7603L266.517 92.3ZM260.217 98.1L259.77 97.2055L259.76 97.2104L260.217 98.1ZM251.217 99C245.066 99 241.102 97.1949 238.958 93.8592L237.276 94.9408C239.931 99.0718 244.701 101 251.217 101V99ZM238.965 93.87C236.769 90.3574 235.617 85.3688 235.617 78.8H233.617C233.617 85.5646 234.797 90.9759 237.269 94.93L238.965 93.87ZM235.617 78.8V53.1H233.617V78.8H235.617ZM234.617 54.1H245.417V52.1H234.617V54.1ZM244.417 53.1V76.1H246.417V53.1H244.417ZM244.417 76.1C244.417 79.9232 244.617 82.9614 245.034 85.1843L247 84.8157C246.616 82.772 246.417 79.8768 246.417 76.1H244.417ZM245.041 85.2203C245.543 87.4399 246.501 89.2039 247.997 90.3849L249.236 88.8151C248.199 87.9961 247.424 86.6935 246.992 84.7797L245.041 85.2203ZM248.017 90.4C249.596 91.5844 251.814 92.1 254.517 92.1V90.1C252.02 90.1 250.304 89.6155 249.217 88.8L248.017 90.4ZM254.517 92.1C256.585 92.1 258.565 91.5062 260.441 90.3517L259.393 88.6483C257.802 89.6271 256.182 90.1 254.517 90.1V92.1ZM260.441 90.3517C262.316 89.1975 263.83 87.6453 264.977 85.7098L263.257 84.6902C262.27 86.3547 260.984 87.6691 259.393 88.6483L260.441 90.3517ZM264.972 85.719C266.201 83.6946 266.817 81.4816 266.817 79.1H264.817C264.817 81.1184 264.3 82.972 263.262 84.681L264.972 85.719ZM266.817 79.1V53.1H264.817V79.1H266.817ZM265.817 54.1H276.517V52.1H265.817V54.1ZM275.517 53.1V99H277.517V53.1H275.517ZM276.517 98H267.717V100H276.517V98ZM268.701 98.8237L267.501 92.1237L265.532 92.4763L266.732 99.1763L268.701 98.8237ZM265.675 91.7603C264.096 94.2228 262.127 96.0267 259.77 97.2056L260.664 98.9944C263.373 97.64 265.604 95.5772 267.359 92.8397L265.675 91.7603ZM259.76 97.2104C257.468 98.3874 254.634 99 251.217 99V101C254.867 101 258.032 100.346 260.674 98.9896L259.76 97.2104Z" fill="white"/>
<path d="M280.961 61.9H272.861V53.1H280.961V34.4L291.861 32V53.1H302.461V61.9H291.861V99H280.961V61.9Z" fill="#4C9FEB"/>
<path d="M280.961 61.9H281.961V60.9H280.961V61.9ZM272.861 61.9H271.861V62.9H272.861V61.9ZM272.861 53.1V52.1H271.861V53.1H272.861ZM280.961 53.1V54.1H281.961V53.1H280.961ZM280.961 34.4L280.746 33.4234L279.961 33.5962V34.4H280.961ZM291.861 32H292.861V30.7559L291.646 31.0234L291.861 32ZM291.861 53.1H290.861V54.1H291.861V53.1ZM302.461 53.1H303.461V52.1H302.461V53.1ZM302.461 61.9V62.9H303.461V61.9H302.461ZM291.861 61.9V60.9H290.861V61.9H291.861ZM291.861 99V100H292.861V99H291.861ZM280.961 99H279.961V100H280.961V99ZM280.961 60.9H272.861V62.9H280.961V60.9ZM273.861 61.9V53.1H271.861V61.9H273.861ZM272.861 54.1H280.961V52.1H272.861V54.1ZM281.961 53.1V34.4H279.961V53.1H281.961ZM281.176 35.3766L292.076 32.9766L291.646 31.0234L280.746 33.4234L281.176 35.3766ZM290.861 32V53.1H292.861V32H290.861ZM291.861 54.1H302.461V52.1H291.861V54.1ZM301.461 53.1V61.9H303.461V53.1H301.461ZM302.461 60.9H291.861V62.9H302.461V60.9ZM290.861 61.9V99H292.861V61.9H290.861ZM291.861 98H280.961V100H291.861V98ZM281.961 99V61.9H279.961V99H281.961Z" fill="white"/>
<path d="M314.125 82.71C314.965 86.13 316.585 88.68 318.985 90.36C321.445 91.98 324.565 92.79 328.345 92.79C330.865 92.79 333.175 92.4 335.275 91.62C337.375 90.84 339.055 90 340.315 89.1C341.995 90.06 342.835 91.41 342.835 93.15C342.835 94.17 342.445 95.13 341.665 96.03C340.885 96.87 339.805 97.62 338.425 98.28C337.105 98.88 335.515 99.36 333.655 99.72C331.855 100.08 329.905 100.26 327.805 100.26C324.325 100.26 321.145 99.78 318.265 98.82C315.445 97.86 313.015 96.42 310.975 94.5C308.935 92.58 307.345 90.21 306.205 87.39C305.125 84.57 304.585 81.3 304.585 77.58C304.585 73.98 305.125 70.83 306.205 68.13C307.285 65.37 308.755 63.09 310.615 61.29C312.475 59.43 314.665 58.02 317.185 57.06C319.705 56.1 322.405 55.62 325.285 55.62C328.165 55.62 330.775 56.1 333.115 57.06C335.515 57.96 337.555 59.25 339.235 60.93C340.975 62.55 342.295 64.5 343.195 66.78C344.155 69.06 344.635 71.55 344.635 74.25C344.635 75.75 344.275 76.86 343.555 77.58C342.835 78.24 341.785 78.69 340.405 78.93L314.125 82.71ZM325.285 62.91C321.985 62.91 319.225 64.02 317.005 66.24C314.845 68.46 313.705 71.64 313.585 75.78L335.725 72.63C335.485 69.93 334.495 67.65 332.755 65.79C331.015 63.87 328.525 62.91 325.285 62.91ZM354.202 90.45C355.942 88.23 357.712 86.07 359.512 83.97C361.312 81.81 363.082 79.65 364.822 77.49C362.542 74.61 360.322 71.85 358.162 69.21C356.062 66.57 353.872 63.87 351.592 61.11C351.892 59.61 352.462 58.41 353.302 57.51C354.202 56.61 355.312 56.16 356.632 56.16C357.892 56.16 358.882 56.49 359.602 57.15C360.322 57.81 361.102 58.68 361.942 59.76C363.322 61.62 364.732 63.6 366.172 65.7C367.672 67.74 369.202 69.78 370.762 71.82C372.802 69.18 374.752 66.66 376.612 64.26C378.472 61.8 380.392 59.13 382.372 56.25C382.672 56.19 383.062 56.16 383.542 56.16C385.222 56.16 386.542 56.55 387.502 57.33C388.462 58.11 388.942 59.1 388.942 60.3C388.942 61.2 388.732 62.04 388.312 62.82C387.952 63.54 387.292 64.5 386.332 65.7C384.712 67.68 383.032 69.66 381.292 71.64C379.612 73.62 377.962 75.6 376.342 77.58L389.842 94.95C389.662 96.39 389.122 97.53 388.222 98.37C387.322 99.21 386.182 99.63 384.802 99.63C383.482 99.63 382.402 99.27 381.562 98.55C380.782 97.83 379.882 96.84 378.862 95.58C377.482 93.66 376.042 91.68 374.542 89.64C373.102 87.54 371.692 85.5 370.312 83.52C368.332 86.16 366.352 88.83 364.372 91.53C362.392 94.17 360.472 96.84 358.612 99.54H357.172C355.312 99.54 353.902 99.15 352.942 98.37C352.042 97.59 351.592 96.63 351.592 95.49C351.592 94.71 351.772 93.99 352.132 93.33C352.492 92.61 353.182 91.65 354.202 90.45ZM417.936 100.26C416.016 100.26 414.216 100.05 412.536 99.63C410.856 99.27 409.416 98.79 408.216 98.19V115.11C407.796 115.29 407.196 115.44 406.416 115.56C405.696 115.74 404.886 115.83 403.986 115.83C402.246 115.83 400.956 115.5 400.116 114.84C399.276 114.18 398.856 113.04 398.856 111.42V64.89C398.856 63.57 399.096 62.52 399.576 61.74C400.056 60.9 400.956 60.09 402.276 59.31C403.956 58.35 405.996 57.51 408.396 56.79C410.856 56.01 413.616 55.62 416.676 55.62C419.796 55.62 422.706 56.07 425.406 56.97C428.106 57.81 430.446 59.13 432.426 60.93C434.406 62.73 435.966 65.04 437.106 67.86C438.246 70.62 438.816 73.92 438.816 77.76C438.816 81.54 438.276 84.84 437.196 87.66C436.176 90.42 434.736 92.76 432.876 94.68C431.076 96.54 428.886 97.95 426.306 98.91C423.786 99.81 420.996 100.26 417.936 100.26ZM416.496 92.61C420.396 92.61 423.486 91.44 425.766 89.1C428.046 86.7 429.186 82.92 429.186 77.76C429.186 75.12 428.856 72.87 428.196 71.01C427.536 69.15 426.636 67.65 425.496 66.51C424.416 65.31 423.096 64.47 421.536 63.99C420.036 63.45 418.416 63.18 416.676 63.18C414.756 63.18 413.106 63.42 411.726 63.9C410.406 64.32 409.236 64.83 408.216 65.43V90.18C409.236 90.9 410.436 91.5 411.816 91.98C413.196 92.4 414.756 92.61 416.496 92.61ZM456.244 82.71C457.084 86.13 458.704 88.68 461.104 90.36C463.564 91.98 466.684 92.79 470.464 92.79C472.984 92.79 475.294 92.4 477.394 91.62C479.494 90.84 481.174 90 482.434 89.1C484.114 90.06 484.954 91.41 484.954 93.15C484.954 94.17 484.564 95.13 483.784 96.03C483.004 96.87 481.924 97.62 480.544 98.28C479.224 98.88 477.634 99.36 475.774 99.72C473.974 100.08 472.024 100.26 469.924 100.26C466.444 100.26 463.264 99.78 460.384 98.82C457.564 97.86 455.134 96.42 453.094 94.5C451.054 92.58 449.464 90.21 448.324 87.39C447.244 84.57 446.704 81.3 446.704 77.58C446.704 73.98 447.244 70.83 448.324 68.13C449.404 65.37 450.874 63.09 452.734 61.29C454.594 59.43 456.784 58.02 459.304 57.06C461.824 56.1 464.524 55.62 467.404 55.62C470.284 55.62 472.894 56.1 475.234 57.06C477.634 57.96 479.674 59.25 481.354 60.93C483.094 62.55 484.414 64.5 485.314 66.78C486.274 69.06 486.754 71.55 486.754 74.25C486.754 75.75 486.394 76.86 485.674 77.58C484.954 78.24 483.904 78.69 482.524 78.93L456.244 82.71ZM467.404 62.91C464.104 62.91 461.344 64.02 459.124 66.24C456.964 68.46 455.824 71.64 455.704 75.78L477.844 72.63C477.604 69.93 476.614 67.65 474.874 65.79C473.134 63.87 470.644 62.91 467.404 62.91ZM505.775 98.82C505.355 99 504.755 99.15 503.975 99.27C503.255 99.45 502.445 99.54 501.545 99.54C499.805 99.54 498.515 99.21 497.675 98.55C496.835 97.89 496.415 96.78 496.415 95.22V65.7C496.415 64.2 496.715 63 497.315 62.1C497.915 61.14 498.875 60.24 500.195 59.4C501.935 58.32 504.155 57.42 506.855 56.7C509.555 55.98 512.525 55.62 515.765 55.62C521.045 55.62 523.685 57.12 523.685 60.12C523.685 60.84 523.565 61.53 523.325 62.19C523.085 62.79 522.815 63.33 522.515 63.81C521.915 63.69 521.165 63.57 520.265 63.45C519.365 63.33 518.405 63.27 517.385 63.27C514.985 63.27 512.795 63.54 510.815 64.08C508.835 64.56 507.155 65.19 505.775 65.97V98.82ZM540.933 86.67C540.933 88.83 541.563 90.36 542.823 91.26C544.083 92.16 545.853 92.61 548.133 92.61C549.153 92.61 550.233 92.46 551.373 92.16C552.513 91.86 553.503 91.5 554.343 91.08C554.763 91.56 555.123 92.1 555.423 92.7C555.783 93.3 555.963 94.02 555.963 94.86C555.963 96.42 555.153 97.71 553.533 98.73C551.973 99.75 549.573 100.26 546.333 100.26C541.833 100.26 538.233 99.27 535.533 97.29C532.893 95.25 531.573 91.92 531.573 87.3V45.27C531.993 45.15 532.593 45 533.373 44.82C534.153 44.64 534.993 44.55 535.893 44.55C537.633 44.55 538.893 44.88 539.673 45.54C540.513 46.2 540.933 47.31 540.933 48.87V57.78H554.883C555.123 58.14 555.333 58.65 555.513 59.31C555.753 59.97 555.873 60.66 555.873 61.38C555.873 63.96 554.763 65.25 552.543 65.25H540.933V86.67Z" fill="#173C73"/>
</g>
<defs>
<clipPath id="clip0">
<rect width="601" height="140" fill="white"/>
</clipPath>
</defs>
</svg>
