<svg width="24" height="15" viewBox="0 0 24 15" fill="none" xmlns="http://www.w3.org/2000/svg">
<rect x="3" y="1" width="8" height="13" rx="4" stroke="white" stroke-width="2"/>
<rect x="6" y="4" width="2" height="3" rx="1" fill="white"/>
<path fill-rule="evenodd" clip-rule="evenodd" d="M21.8409 11.2722L18.3841 14.836C18.172 15.0547 17.828 15.0547 17.6159 14.836L14.1591 11.2722C13.947 11.0535 13.947 10.6989 14.1591 10.4802C14.3712 10.2615 14.7151 10.2615 14.9273 10.4802L17.4568 13.088V1H18.5432V13.088L21.0727 10.4802C21.2849 10.2615 21.6288 10.2615 21.8409 10.4802C22.053 10.6989 22.053 11.0535 21.8409 11.2722Z" fill="white"/>
<path fill-rule="evenodd" clip-rule="evenodd" d="M14.1591 3.72784L17.6159 0.16402C17.828 -0.0546737 18.172 -0.0546737 18.3841 0.16402L21.8409 3.72784C22.053 3.94653 22.053 4.3011 21.8409 4.5198C21.6288 4.73849 21.2849 4.73849 21.0727 4.5198L18.5432 1.91196V14H17.4568V1.91196L14.9273 4.5198C14.7151 4.73849 14.3712 4.73849 14.1591 4.5198C13.947 4.3011 13.947 3.94653 14.1591 3.72784Z" fill="white"/>
</svg>
